<?xml version="1.0" standalone="no"?>
<!DOCTYPE svg PUBLIC "-//W3C//DTD SVG 1.1//EN" "http://www.w3.org/Graphics/SVG/1.1/DTD/svg11.dtd" >
<svg xmlns="http://www.w3.org/2000/svg">
<metadata></metadata>
<defs>
<font id="kaliakraregular" horiz-adv-x="1024" >
<font-face units-per-em="2048" ascent="1638" descent="-410" />
<missing-glyph horiz-adv-x="588" />
<glyph horiz-adv-x="2048" />
<glyph horiz-adv-x="2048" />
<glyph unicode="&#xd;" horiz-adv-x="0" />
<glyph unicode=" "  horiz-adv-x="588" />
<glyph unicode="&#x09;" horiz-adv-x="588" />
<glyph unicode="&#xa0;" horiz-adv-x="588" />
<glyph unicode="!" horiz-adv-x="514" d="M28 101v2q2 64 43.5 106.5t102.5 42.5q50 0 80 -31q31 -32 31 -84q0 -61 -42 -106q-41 -46 -99 -46q-47 0 -81.5 34.5t-34.5 81.5zM149 361l265 837h207l-336 -837h-136z" />
<glyph unicode="&#x22;" horiz-adv-x="705" d="M295 817l76 549h188l-139 -549h-125zM605 817l75 549h187l-138 -549h-124z" />
<glyph unicode="#" horiz-adv-x="1159" d="M176 449l2 121h240l39 254h-221l2 121l237 -1l66 422h121l-66 -422h258l64 422h123l-65 -422h204l-4 -120h-219l-39 -254h205l-2 -121h-222l-69 -449h-121l68 449h-257l-69 -449h-121l70 449h-224zM539 570h258l39 254h-258z" />
<glyph unicode="$" d="M175 287q0 49 28 81t70 32q34 0 59.5 -21.5t25.5 -50.5q0 -1 -1 -3t-1 -3l-2 -39q0 -38 39 -63t97 -25q63 0 104 31.5t41 80.5q0 38 -22 76t-77 101q-68 79 -96.5 137t-28.5 121q0 100 67 166.5t192 91.5l72 155h159l-69 -174q53 -18 80 -41q71 -55 71 -139 q0 -45 -25.5 -71.5t-68.5 -26.5q-28 0 -44 13q-15 13 -30 48q-18 44 -40.5 61t-63.5 17q-48 0 -80.5 -26t-32.5 -64q0 -55 94 -160q73 -81 105.5 -143t32.5 -127q0 -78 -43 -147t-115 -110q-71 -42 -152 -42h-16l-25 2l-90 -218h-164l96 249q-146 80 -146 231z" />
<glyph unicode="%" horiz-adv-x="1600" d="M123 629q0 113 54 215t144 162.5t189 60.5q72 0 115 -37.5t67 -119.5q132 56 201 96q104 55 244 153l61 -120l-825 -1273l-76 111l742 1098q-93 -62 -168 -96q-75 -38 -178 -68q-21 -146 -62 -231q-102 -203 -297 -203q-96 0 -153.5 68t-57.5 184zM254 627 q0 -55 26.5 -91.5t65.5 -36.5q84 0 142.5 87.5t76.5 241.5q-38 20 -38 53q0 16 12 43q-33 27 -64 27q-56 0 -107.5 -46t-82.5 -121t-31 -157zM908 232q0 120 51 226q49 105 134 167.5t181 62.5q64 0 116.5 -27.5t81.5 -76.5q29 -48 29 -109v-4q-3 -133 -54 -240 q-50 -108 -134.5 -169.5t-185.5 -61.5q-98 0 -159 64q-60 63 -60 168zM1041 246q0 -55 24 -88q25 -33 66 -33q55 0 106 48.5t82.5 128t31.5 163.5q0 46 -24 73q-26 27 -69 27q-65 0 -109 -51q-49 -52 -78.5 -126t-29.5 -142z" />
<glyph unicode="&#x26;" horiz-adv-x="924" d="M-6 178q0 60 41 132.5t100 117.5l82 62l13 12v2q-64 108 -64 197q0 100 69 191t183 146.5t238 55.5q109 0 168 -39q59 -38 59 -109q0 -43 -20.5 -77t-73.5 -76q-48 -37 -111 -92q-56 -51 -104 -109l-140 78q13 18 22.5 30.5t16.5 22.5q65 79 142 133q55 42 60 45l5 5 q3 4 5 6q8 8 8 16q0 18 -33 18q-64 0 -136.5 -32t-125.5 -84q-68 -68 -68 -142l74 -190q-11 0 -11 -38q0 -26 -29.5 -57t-80.5 -59q-50 -28 -83 -72q-34 -43 -34 -79q0 -47 74 -47q46 0 91 21t122 79l27 18l8 7l-14 22q-44 79 -52 96l127 89l2 -6l10 -17l27 -49l10 -16 q39 48 72 108h170q-36 -77 -59 -112q-37 -62 -94 -134l151 -207l35 -45h-213q-16 24 -24 41l-46 68l-16 26q-111 -83 -172 -116q-85 -46 -172 -46q-102 0 -169 59q-67 57 -67 146z" />
<glyph unicode="'" horiz-adv-x="396" d="M292 817l77 549h188l-139 -549h-126z" />
<glyph unicode="(" horiz-adv-x="637" d="M140 187q0 426 225 845q47 89 96 167q50 77 115 161t172 211h198q-40 -47 -49 -56q-8 -10 -22 -26q-123 -143 -187 -233q-89 -125 -158 -259q-69 -133 -117 -279q-49 -145 -74 -288.5t-25 -283.5q0 -89 10 -195q5 -45 26 -156h-170q-22 115 -28 174q-12 108 -12 218z" />
<glyph unicode=")" horiz-adv-x="637" d="M-80 -205l18 22l21 23q127 148 154 183q76 92 141 200q73 120 129 246q57 125 94.5 250t56.5 250t19 248q0 94 -10 196q-6 51 -27 158h170q21 -105 29 -174q12 -107 12 -221q0 -425 -223 -844q-48 -88 -98 -166t-114 -159q-63 -83 -173 -212h-199z" />
<glyph unicode="*" horiz-adv-x="674" d="M286 1077l60 140l232 -111v260h153l-53 -274l246 98l37 -139l-260 -57l156 -203l-126 -70l-125 227l-147 -227l-113 100l189 187z" />
<glyph unicode="+" d="M99 656v94h419v397h97v-397h422v-94h-422v-398h-97v398h-419z" />
<glyph unicode="," horiz-adv-x="496" d="M-76 -277l195 511h250l-344 -511h-101z" />
<glyph unicode="-" horiz-adv-x="518" d="M-1 256l85 172h434l-67 -172h-452z" />
<glyph unicode="." horiz-adv-x="496" d="M44 101v2q2 64 43.5 106.5t103.5 42.5q49 0 79.5 -31.5t30.5 -83.5q0 -61 -41.5 -106.5t-99.5 -45.5q-47 0 -81.5 34.5t-34.5 81.5z" />
<glyph unicode="/" horiz-adv-x="867" d="M116 -205l579 1776h165l-589 -1776h-155z" />
<glyph unicode="0" d="M142 314q0 104 31 215.5t89 213.5q58 103 134 181q140 147 317 147q78 0 144 -42.5t104.5 -116.5t38.5 -162v-10q-7 -150 -56 -288.5t-128.5 -244.5t-180.5 -166q-100 -61 -207 -61q-85 0 -150 41q-65 42 -100.5 117.5t-35.5 175.5zM322 309q0 -73 31.5 -118t82.5 -45 q98 0 179 84q86 93 142 239t56 275q0 71 -29.5 113t-78.5 42q-46 0 -94.5 -23t-83.5 -63q-59 -65 -107 -153q-47 -87 -72 -179q-26 -91 -26 -172z" />
<glyph unicode="1" d="M265 -17l74 132q99 170 167 303q61 128 98 211q-22 -10 -36 -16q-13 -6 -38 -17q-35 -14 -123 -47l21 174q106 51 168 94q67 47 147 125q30 82 62 117q33 35 82 35q42 0 68 -24.5t26 -63.5q0 -72 -78 -148q-90 -218 -157 -366q-50 -111 -86 -187q-55 -114 -168 -322h-227 z" />
<glyph unicode="2" d="M2 142q0 47 25.5 87t69.5 63q44 24 96 24q45 0 97.5 -11t131.5 -43q105 110 153.5 170t105.5 150q100 157 100 254q0 37 -23 59q-22 23 -59 23q-74 0 -142 -56q-33 -27 -45 -41q-41 -40 -108 -143l-135 80q52 90 87 135t87 90q114 103 264 103q78 0 138 -27 q60 -26 92 -74.5t32 -113.5q0 -177 -131 -375q-35 -53 -65.5 -91.5t-72.5 -82.5t-116 -115q109 -45 182 -45q60 0 174 33q14 3 22 6q9 3 21 6l-47 -194q-64 -34 -141 -34q-90 0 -180 34q-61 18 -170 71q-63 -44 -115 -74q-75 -35 -145 -35q-81 0 -132 46.5t-51 120.5z M140 148q0 -17 14 -29q15 -12 35 -12q47 0 114 51q-2 1 -5 2t-5 2q-56 23 -84 23q-30 0 -49.5 -11t-19.5 -26z" />
<glyph unicode="3" d="M129 258q0 28 8 90h170q-1 -9 -2 -19.5t-2 -19.5q3 -83 34 -122t93 -39q70 0 131 31.5t98.5 83t37.5 110.5q0 54 -41 106q-87 -24 -121 -24q-58 0 -95 25q-36 26 -36 67q0 51 49 84q50 33 127 33q37 0 76 -8q81 49 116 94q36 44 36 98q0 32 -20 51t-50 19q-68 0 -127 -47 q-44 -32 -136 -136l-120 84q87 115 161 175q121 92 250 92q109 0 175.5 -59.5t66.5 -157.5q0 -97 -65 -185q-39 -49 -129 -112q44 -52 63 -95.5t19 -97.5q0 -103 -65 -196q-65 -92 -173 -147.5t-228 -55.5q-143 0 -222 73t-79 205z" />
<glyph unicode="4" d="M50 248q0 48 34 85t114 77q102 149 164 276q46 93 75 170q30 77 75 217h209q-11 -18 -17 -34l-6 -15l-129 -293q-41 -91 -76 -153q-37 -70 -86 -146q22 -3 33.5 -4.5t24.5 -2.5t33 -3q73 -7 92 -8q127 256 145 291q22 45 29 57l21 39q59 119 129 119q29 0 49 -16 q20 -15 20 -37q0 -38 -49 -119q-10 -17 -18 -33l-117 -238l-2 -2l-2 -6l-23 -45l-6 -14l19 -2q32 -2 75 -2q52 0 93 2l22 2l-72 -170q-28 -2 -90 -2q-84 0 -123 2q-51 -136 -125 -312h-190q38 117 55 158q2 6 8.5 23t11.5 33q19 43 52 108q-110 9 -158 16l-39 5 q-50 -60 -90 -87q-39 -26 -78 -26q-36 0 -61.5 26t-25.5 64z" />
<glyph unicode="5" d="M125 244l168 25q9 -115 84 -115q117 0 240 123q108 105 108 211q0 49 -31 76.5t-85 27.5q-75 0 -170 -61q-63 -92 -134 -92q-35 0 -61 27q-27 28 -27 63q0 91 103 149l131 305q22 50 48 69t73 19h471l-54 -176h-323q-43 0 -65 -18t-44 -74q0 -1 -6 -17q-7 -15 -12 -26 l18 3q7 0 13 1q64 6 84 6q109 0 186 -77q78 -78 78 -189q0 -98 -46 -192q-48 -95 -128.5 -170t-182.5 -118.5t-208 -43.5q-109 0 -164 55q-33 34 -47 80t-17 129z" />
<glyph unicode="6" d="M147 279q0 230 222 499q128 157 291 285q151 119 202 119h9l12 -2q14 -5 25 -21q13 -16 24.5 -40.5t11.5 -38.5q0 -27 -55 -62q-54 -30 -151 -115q-173 -145 -288.5 -321.5t-115.5 -296.5q0 -53 35 -92t84 -39q92 0 188 96q53 54 85 117.5t32 114.5q0 27 -15 45t-38 18 q-24 0 -62 -27q-41 -28 -73 -28q-30 0 -48 17t-18 46q0 66 69 114t162 48q96 0 151.5 -58t55.5 -157q0 -133 -69 -253.5t-184 -192.5q-115 -74 -242 -74t-213.5 86t-86.5 213z" />
<glyph unicode="7" d="M254 768q0 48 24.5 92t86.5 107q29 86 53 115q29 36 104 36q28 0 37 -9t9 -40l20 2q58 6 88 6q56 0 145 -10q98 -10 152 -10h18q29 0 41 4l37 6l33 4h2q11 0 19 -9t8 -21q0 -26 -26 -50l-11 -10q-54 -51 -175.5 -265.5t-215.5 -426.5q-168 -375 -252 -375q-12 0 -39 10 q-76 32 -76 78q0 45 113 217q36 57 49 80q2 4 4 6.5t4 8.5q7 13 21 42q15 29 38 74q71 139 153 285q54 93 106 176l-35 4q-80 8 -137 8q-66 0 -142 -24q-7 -15 -12 -29q-49 -98 -80.5 -129t-83.5 -41q-36 2 -58 26t-22 62z" />
<glyph unicode="8" d="M111 203q0 81 59 150q55 65 213 159q28 16 56 33q-63 61 -89.5 112.5t-26.5 112.5q0 97 66.5 170t188.5 113q122 38 282 38q73 1 104 -17q32 -19 32 -62q0 -40 -23.5 -55t-85.5 -17q-172 -4 -276 -47q-105 -42 -105 -108q0 -69 98 -138l410 244v-194l-289 -179 q52 -49 74 -96q27 -54 27 -119q0 -92 -52 -166q-52 -73 -144 -115t-206 -42q-138 0 -225.5 62.5t-87.5 160.5zM297 215q0 -28 34.5 -45.5t88.5 -17.5q90 0 153.5 38.5t63.5 94.5q0 69 -76 135q-9 -5 -15 -9t-17 -9q-232 -129 -232 -187z" />
<glyph unicode="9" d="M170 -92q0 24 47 63l187 154q108 89 211.5 218.5t161.5 248.5q51 102 51 195q0 55 -40 93t-100 38q-91 0 -174 -86q-54 -55 -86 -123t-32 -125q0 -28 15 -46t38 -18l137 58l25 -4q11 -3 20 -15q21 -23 21 -47q0 -43 -33 -82.5t-86 -63.5t-113 -24q-93 0 -153 65.5 t-60 168.5q0 132 70 251t186 192q116 71 244 71q86 0 156 -41t109 -113q40 -72 40 -162q0 -108 -55.5 -235t-163.5 -263q-107 -137 -254 -268l-6 -6q-9 -6 -23 -21q-187 -170 -246 -170q-32 0 -61 33q-33 30 -33 64z" />
<glyph unicode=":" horiz-adv-x="496" d="M47 101v2q2 64 43 106.5t103 42.5q49 0 80 -31.5t31 -83.5q0 -61 -42 -106.5t-100 -45.5q-47 0 -81 34.5t-34 81.5zM201 539v2q2 65 43 107t102 42q50 0 80 -32q31 -32 31 -84q0 -62 -42 -106q-41 -44 -99 -44q-49 0 -82 33t-33 82z" />
<glyph unicode=";" horiz-adv-x="496" d="M-76 -277l195 511h250l-344 -511h-101zM199 539v2q2 64 42 105.5t101 41.5q50 0 80.5 -31t30.5 -83q0 -62 -42 -106q-41 -44 -99 -44q-47 0 -80 33t-33 82z" />
<glyph unicode="&#x3c;" d="M123 609v155l887 426v-182l-694 -322l694 -323v-180z" />
<glyph unicode="=" d="M98 512v92h939v-92h-939zM98 803v92h939v-92h-939z" />
<glyph unicode="&#x3e;" d="M123 183v180l695 323l-695 324v180l887 -426v-155z" />
<glyph unicode="?" horiz-adv-x="649" d="M87 101v2q2 64 43.5 106.5t103.5 42.5q48 0 79 -31.5t31 -83.5q0 -61 -41.5 -106.5t-99.5 -45.5q-47 0 -81.5 34.5t-34.5 81.5zM136 936q76 120 134 168q101 84 234 84q73 0 132 -29t91.5 -80.5t32.5 -117.5q0 -61 -19 -107.5t-63 -92.5q-45 -45 -127 -101 q-87 -60 -127 -97t-62 -81q-21 -44 -42 -123h-132q20 97 42.5 152t64.5 103q43 48 127 117q89 75 114 108.5t39 102.5q-5 99 -89 99q-63 0 -115 -50q-33 -27 -54 -56.5t-59 -96.5z" />
<glyph unicode="@" horiz-adv-x="1430" d="M166 678q0 149 55 279t153.5 227.5t230.5 151t284 53.5q183 0 332.5 -77.5t235 -213.5t85.5 -301q0 -72 -16.5 -137.5t-47.5 -123.5q-32 -57 -78 -106q-46 -48 -105 -86q-110 -67 -201 -67q-102 0 -105 114q-92 -106 -211 -106q-131 0 -213 93q-81 92 -81 241 q0 119 48 216q49 98 134 154t188 56q84 0 140 -35q56 -34 96 -111l24 120l119 -1l-98 -536q0 -5 -2 -7q-8 -35 -8 -55q0 -43 36 -43q32 0 77.5 26.5t88.5 69.5q127 127 127 305q0 109 -41.5 204.5t-117 165.5t-177.5 109q-101 38 -221 38q-170 0 -311 -81.5t-222 -222.5 t-81 -311q0 -168 82 -309q81 -140 223 -221q142 -80 311 -80q116 0 209 39q62 25 109 57q46 33 121 105h118q-87 -103 -142 -150t-132 -84q-128 -59 -287 -59q-207 0 -373.5 90.5t-261 251t-94.5 358.5zM627 629q0 -98 54 -160q54 -61 140 -61h5q65 2 114.5 41.5t77 109 t27.5 160.5q0 88 -47.5 140.5t-128.5 52.5q-102 0 -172 -82t-70 -201z" />
<glyph unicode="A" horiz-adv-x="1207" d="M-43 0q40 97 70 156l11 21l14 29l18 36q21 38 28 52q8 13 25 46q18 32 37 66q-41 -4 -92 -10q-27 -4 -46 -7.5t-47 -7.5l54 172q37 6 48.5 7.5t31.5 4.5q56 9 133 15q87 135 139 210t100.5 135t110.5 126q294 315 557 315q72 0 111 -31.5t39 -89.5q0 -35 -18 -106l-4 -16 l-258 -912q18 -54 18 -86q0 -53 -33 -89t-82 -36q-52 0 -84 36t-32 93q0 26 12 78l6 19q-54 57 -87 82q-35 26 -85 49q-69 32 -128 44.5t-163 16.5q-38 -62 -58 -102q-48 -85 -116 -232l-41 -84h-189zM447 576q139 -19 225 -51q84 -33 199 -111l203 688l2 4l12 41q2 2 2 10 q2 7 2 13q0 24 -21 24q-22 0 -89.5 -40.5t-125.5 -90.5q-102 -87 -182 -184q-93 -105 -227 -303z" />
<glyph unicode="B" horiz-adv-x="1114" d="M-29 -25l447 1025q84 191 162 268q97 100 250 100q90 0 154.5 -37.5t98 -110.5t33.5 -175q0 -201 -127 -328q-40 -38 -71 -55q-1 -1 -123 -58q-13 -8 -31 -16l12 -12q256 -62 256 -256q0 -68 -33 -126t-95.5 -98.5t-147.5 -58.5q-118 -26 -274 -33q-82 -4 -164 -4h-41 l76 178h88q195 0 296 35t101 103q0 34 -28 56q-29 23 -95 44q-87 26 -124 61q-38 36 -38 91q0 53 36 94.5t126 93.5q119 69 167 134t48 157q0 145 -109 145q-114 0 -176 -141l-467 -1076h-207z" />
<glyph unicode="C" horiz-adv-x="1112" d="M133 371q0 113 43.5 240.5t123.5 253t190 235.5q266 266 526 266q82 0 142 -29t92 -84t32 -130q0 -204 -186 -377q-85 -79 -171 -129q-87 -49 -263 -119l47 213q108 50 162 86t116 96q110 107 110 219q0 92 -101 92q-158 0 -349 -190q-92 -93 -167 -208t-117.5 -225.5 t-42.5 -197.5q0 -98 69 -164q70 -65 174 -65q122 0 220 76q61 51 141 172l160 -80q-63 -92 -100 -135.5t-87 -81.5q-159 -125 -362 -125q-116 0 -208 49q-91 49 -142.5 139t-51.5 203z" />
<glyph unicode="D" horiz-adv-x="1411" d="M-80 117q0 58 58 90q59 31 168 31q101 0 272 -28q62 59 113 120q72 95 168 344q49 125 68.5 167t62.5 120q-160 124 -250 176q-98 55 -182 55q-58 0 -58 -51q0 -42 41 -96q18 -23 47 -51q68 -63 187 -140l-74 -151q-128 78 -180.5 119t-110.5 106q-96 110 -96 240 q0 92 56.5 144t156.5 52q126 0 274 -67q98 -46 285 -176l70 102l135 -102l-72 -111q141 -161 203 -264q88 -148 88 -312q0 -218 -146 -333t-423 -115q-73 0 -156 12q-68 12 -166 42q-50 -24 -96 -35q-76 -19 -168 -19q-125 0 -200 35.5t-75 95.5zM643 178l33 -6 q92 -12 129 -12q107 0 186 35t122 100q42 66 42 154q0 112 -67 229q-37 62 -119 152q-18 -38 -33 -72q-5 -12 -31 -82l-14 -39q-44 -129 -121 -268q-46 -85 -127 -191z" />
<glyph unicode="E" horiz-adv-x="1032" d="M98 201q0 65 33 136q34 71 90 129q55 59 117 85q37 16 37 37q0 17 -22 72q-35 92 -35 151q0 103 52 204t141 179.5t204 125t233 46.5q97 0 151 -38t54 -105q0 -40 -17.5 -81t-66.5 -110l-200 -284l-136 114l187 256l6 9q25 33 25 49q0 28 -50 28q-56 0 -96 -20 q-78 -35 -147.5 -102.5t-110.5 -148.5q-41 -80 -41 -150q0 -52 59 -148q44 -66 44 -96q0 -39 -119 -98q-197 -97 -197 -201q0 -38 32.5 -60t90.5 -22q153 0 297 111q48 38 84 77.5t84 106.5h205q-58 -105 -94.5 -156t-94.5 -104q-229 -213 -510 -213q-129 0 -208 61 q-81 61 -81 160z" />
<glyph unicode="F" horiz-adv-x="1241" d="M49 520q0 128 123 283q101 128 217 232q116 105 235 178q120 72 241 112q122 39 231 39q92 0 147.5 -44t55.5 -118q0 -91 -59 -235q-49 -129 -90 -217q-41 -87 -140 -271h252l-90 -165h-236q-89 -150 -115 -190q-13 -21 -23.5 -36t-21.5 -32q-19 -28 -81 -112h-242 q96 112 166 212q30 42 97 158h-159l84 166h164l53 104q106 203 177 368q72 164 72 201t-44 37q-129 0 -285.5 -85.5t-318.5 -244.5q-95 -93 -161 -183t-66 -124q0 -24 28 -24q45 0 119 57q49 43 90 84q75 79 122 138t118 163l70 -201q-89 -119 -144.5 -179t-128.5 -120 q-149 -118 -278 -118q-74 0 -126.5 49t-52.5 118z" />
<glyph unicode="G" horiz-adv-x="1102" d="M145 301q0 138 47 290q47 153 134.5 300t198.5 262q99 101 214 156t226 55q71 0 129 -33q59 -33 93 -91t34 -126q0 -144 -133 -274q-42 -41 -82 -65.5t-113 -55.5v199q141 89 141 182q0 40 -27.5 66t-72.5 26q-64 0 -135 -35.5t-123 -93.5q-149 -169 -243.5 -381 t-94.5 -379q0 -65 32 -106t83 -41q48 0 105 24t100 64q46 41 127 131q46 53 55 74l18 49q54 164 146 164q39 0 64 -25q26 -25 26 -65q0 -43 -20 -83t-74 -110q-68 -201 -106 -302t-79 -187t-110 -212q-44 -78 -89 -128t-73 -50q-9 0 -17 8.5t-8 18.5q0 4 4 28q0 1 1.5 9.5 t1.5 19.5v39v4q0 37 -3 82l-2 20q85 127 123 203q35 71 64 148q-79 -57 -135 -76q-67 -25 -144 -25q-84 0 -148 41q-64 39 -99.5 112.5t-35.5 168.5z" />
<glyph unicode="H" horiz-adv-x="1434" d="M-150 164q0 68 47 128t137 104q88 45 207 69q84 16 193 25q117 4 211 6q70 125 107.5 203t73.5 178q46 121 86 317l190 35q-13 -119 -26.5 -186.5t-43.5 -161.5q-31 -100 -63 -173t-98 -196q97 5 194 21l25 65l104 301q50 146 114 257q64 112 131 171q66 60 128 60 q25 0 25 -17q0 -14 -16 -45q-100 -220 -133 -303q-35 -82 -62 -160q-44 -118 -94 -284l112 37l48 -166q-47 -18 -86 -27q-25 -8 -144 -38q-34 -103 -47 -154q-15 -46 -23 -80q-14 -54 -33 -143l-202 -1q35 136 98 342l-33 -4q-85 -9 -174 -14l-51 -4q-95 -103 -145 -150 q-50 -46 -105 -83q-168 -113 -381 -113q-126 0 -198.5 48.5t-72.5 135.5zM39 176q0 -43 78 -43q120 0 240 68q64 37 151 117q-243 -15 -356 -49t-113 -93z" />
<glyph unicode="I" horiz-adv-x="828" d="M-82 25l107 166q62 -25 96 -25q64 0 138 51t145 144q132 171 250 499q76 208 76 285q0 37 -35 37q-74 0 -150 -130t-121 -331l-215 -115q15 126 31 192t55 157q43 97 94 172t109.5 128t122 82t125.5 29q77 0 124.5 -53.5t47.5 -140.5q0 -186 -112 -467 q-96 -237 -208 -399t-238.5 -244.5t-262.5 -82.5q-96 0 -179 46z" />
<glyph unicode="J" horiz-adv-x="844" d="M-103 -293q0 94 44 198q44 105 126 204q94 113 188.5 191t299.5 210q104 218 156 367l53 157q29 86 29 115q0 35 -35 35q-55 0 -111 -72q-26 -31 -59 -90q-43 -86 -67.5 -156.5t-59.5 -207.5l-199 -148q0 27 -2 33v37q0 152 82 356q54 132 128.5 229.5t160 149 t172.5 51.5q55 0 97 -19t64.5 -54.5t22.5 -81.5q0 -239 -280 -830l-174 -368q-96 -204 -144.5 -284t-109.5 -139q-88 -82 -189 -82q-87 0 -140 54.5t-53 144.5zM78 -271q0 -45 31 -45q20 0 42 26t58 95l12 25l104 201l27 53l57 113l17 31q-118 -101 -183 -183 q-76 -97 -121 -182q-44 -86 -44 -134z" />
<glyph unicode="K" horiz-adv-x="1028" d="M20 0l279 596q-7 14 -13 23q-24 39 -24 67q0 53 108 113q22 12 27 16l240 531h207l-197 -426q145 107 244 207q90 92 182 219h195q-73 -121 -116 -179.5t-105 -121.5q-41 -43 -98.5 -94t-122.5 -102q-66 -50 -130 -93.5t-126 -79.5q-50 -26 -50 -45q0 -24 132 -207 q124 -169 217 -254q83 -80 219 -170h-323q-60 60 -90 94q-71 88 -198 271l-24 37l-25 34l-196 -436h-212z" />
<glyph unicode="L" horiz-adv-x="1080" d="M-158 97q0 61 55.5 93.5t158.5 32.5q31 0 118 -10q4 -1 12 -2t13 -2q94 115 133 196q40 80 107 294q72 230 151 378q80 147 172 217q93 70 203 70q63 0 115 -26t81 -72.5t29 -104.5q0 -97 -53 -233q-40 -103 -141 -281l-250 -57l51 90q95 165 147 283.5t52 169.5 q0 61 -50 61q-39 0 -90 -53q-80 -84 -182 -375l-80 -227q-35 -92 -70 -162q-40 -79 -117 -194l25 -3q68 -6 105 -6q103 0 239 19q75 8 248 39l-63 -185q-138 -28 -211 -39q-121 -17 -211 -17q-89 0 -172 13q-75 13 -133 31q-111 -50 -213 -50q-84 0 -131.5 30t-47.5 82z" />
<glyph unicode="M" horiz-adv-x="1407" d="M-165 -21q75 76 114 120.5t81 103.5q79 110 153 241q72 130 183 365q84 174 141 282.5t93 166.5q59 94 148 94q51 0 83 -31q31 -30 31 -80q0 -14 -4.5 -59t-34.5 -170l-12 -49l-99 -477l402 499l27 31l37 39q74 83 94 104q73 84 121 127q47 44 86 62t84 18q47 0 78.5 -23 t31.5 -59q0 -50 -38 -125l-107 -204q-133 -256 -198 -404q-64 -147 -101 -285q-26 -101 -35 -229l-213 -35q12 190 53 332q20 76 64 184q56 146 201 402l-297 -363l-144 -188l-137 -184q-17 -25 -22 -31q-55 -78 -92.5 -106.5t-84.5 -28.5q-38 0 -60 21q-22 22 -22 59 q0 47 8 88l31 131l4 16l131 574l-6 -15q-24 -44 -29 -53q-8 -17 -14 -27q-5 -9 -6 -12l-111 -233q-87 -185 -188 -342q-63 -103 -178 -247h-247z" />
<glyph unicode="N" horiz-adv-x="1100" d="M-111 -53q124 174 212 326q91 160 170 348l251 596q35 78 73 113q39 34 95 34q88 0 107 -88q16 -77 16 -295v-504l101 258q65 168 99.5 244.5t76.5 145.5q39 66 108 145l52 -236q-44 -73 -82 -151q-49 -103 -109 -268l-172 -475q-25 -68 -69 -108t-95 -40 q-50 0 -72.5 39.5t-22.5 128.5l-1 852l-270 -629q-56 -125 -131 -262q-41 -72 -103 -174h-234z" />
<glyph unicode="O" horiz-adv-x="1215" d="M133 332q0 97 27.5 205t75.5 211.5t117.5 201t148.5 173.5q116 109 254 176t246 67q49 0 77.5 -21t28.5 -59q0 -74 -110 -98l-39 -8q-118 -26 -233.5 -108t-206.5 -200q-90 -118 -142.5 -254t-52.5 -265q0 -91 48.5 -148t125.5 -57q72 0 147.5 34t135.5 93q80 80 146 186 t104 214t38 192q0 79 -59 79q-150 0 -205 -282l-209 -92q8 91 18.5 138t37.5 105q61 142 162.5 221.5t222.5 79.5q66 0 117 -29t79.5 -82t28.5 -122q0 -74 -32.5 -195t-75.5 -209q-56 -115 -131 -208.5t-161 -157.5t-182 -98.5t-194 -34.5q-106 0 -186 43t-123.5 122.5 t-43.5 186.5z" />
<glyph unicode="P" horiz-adv-x="983" d="M90 -29q0 66 30.5 195t89.5 309t126 351q44 115 84 196q39 82 78 141t84 105q113 119 260 119q84 0 145 -42q62 -41 94.5 -119.5t32.5 -182.5q0 -150 -43 -290.5t-117.5 -250.5t-170.5 -173t-197 -63q-102 0 -102 89q0 70 79 92l35 10q70 19 129 70t102 128.5t66.5 173.5 t23.5 203q0 179 -104 179q-66 0 -110 -57q-58 -67 -135 -226q-59 -119 -156 -399l-10 -33l-13 -35q-14 -185 -45.5 -317.5t-78.5 -199.5t-107 -67q-30 0 -50 26.5t-20 67.5z" />
<glyph unicode="Q" horiz-adv-x="1106" d="M-140 97q0 61 54 98t142 37q70 0 176 -27q152 97 236.5 162t187.5 162q337 320 337 534q0 66 -42.5 102.5t-120.5 36.5q-165 0 -324 -161q-47 -49 -78 -92q-31 -42 -60 -98.5t-67 -147.5l-141 127q77 146 127 218t125 142q184 174 428 174q104 0 183 -34.5t122 -98 t43 -147.5q0 -291 -371 -662q-78 -78 -213 -176q-35 -25 -42.5 -31t-14.5 -11.5t-33 -25.5q68 -8 138 -8q99 0 208 10q89 14 158 29l-51 -194q-87 -13 -123 -15q-82 -8 -197 -8q-108 0 -221 10q-58 6 -162 29l-16 -6l-18 -4q-111 -36 -179 -36q-191 0 -191 112z" />
<glyph unicode="R" horiz-adv-x="1077" d="M215 72q0 86 35 225t127 420l35 102q74 226 143 340q121 207 316 207q83 0 143.5 -42.5t92.5 -123.5t32 -192q0 -114 -35 -218q-36 -103 -103 -183q-66 -81 -155 -128q-41 -21 -51 -43q2 -14 35 -45.5t69 -70.5q32 -35 60.5 -66.5t34.5 -38.5q30 -34 53 -65 q37 -46 84 -119l-172 -117q-63 99 -117 166q-31 43 -107 129q-55 63 -61 70l-29 28q-77 78 -77 142q0 61 120 139q93 61 150 125q58 63 85.5 138.5t27.5 164.5q0 176 -105 176q-57 0 -106 -55q-58 -63 -129 -277l-105 -311l-55 -321q-16 -100 -70 -178.5t-106 -78.5 q-60 0 -60 101z" />
<glyph unicode="S" horiz-adv-x="1123" d="M0 209q0 79 53.5 140t150.5 94.5t226 33.5q63 0 142 -14l-39 -170h-4l-117 4h-21q-88 0 -141 -19.5t-53 -51.5q0 -60 188 -60q147 0 254 21.5t163 63.5t56 99q0 46 -45.5 84.5t-150.5 81.5q-112 48 -181 98.5t-102 109.5t-33 130q0 97 52.5 189t144.5 165 q91 74 206.5 116t235.5 42q103 0 161 -46.5t58 -131.5q0 -104 -83 -190q-76 -76 -181 -125q-54 -26 -99 -38t-128 -24l31 180q112 20 198 73.5t86 103.5q0 34 -51 34h-4q-86 -3 -180 -43q-121 -50 -192.5 -126t-71.5 -156q0 -58 53 -105q53 -46 179 -98q162 -64 229 -133 q67 -68 67 -168q0 -88 -45 -161q-46 -72 -132 -124.5t-206.5 -80.5t-265.5 -28q-131 0 -223.5 26.5t-138.5 78t-46 125.5z" />
<glyph unicode="T" horiz-adv-x="1069" d="M116 910q0 56 53.5 98t178.5 84q157 53 353 96q144 33 366 72q34 59 66 82.5t80 23.5t77 -27.5t29 -72.5q0 -38 -21 -67t-73 -64l-29 -76l-28 -78q-75 -199 -127 -330t-92.5 -223.5t-90.5 -191.5q-55 -115 -151 -277h-251q101 155 162 269q130 243 287 624l97 232 q-7 -1 -57 -10t-62 -11q-174 -37 -302 -78l-166 -57q-51 -19 -51 -31q0 -24 187 -119l10 -6l8 -4l-133 -133q-320 143 -320 275z" />
<glyph unicode="U" horiz-adv-x="1331" d="M81 615q27 124 50 204t49 141q27 62 70 138q75 129 176 199q102 69 215 69q62 0 111.5 -25t77.5 -69t28 -98q0 -99 -53 -209l-359 -754q179 157 287 256.5t186 180.5t148 167q71 86 172 222l84 149l213 57l-280 -587q-107 -225 -146 -396q-25 -97 -33 -235l-205 -46 q10 129 33 234q20 85 40 144t64 159l-433 -430q-104 -101 -209 -101q-57 0 -93.5 34t-36.5 86q0 49 17 102q18 52 65 152q3 5 4.5 8.5t3.5 5.5l304 672q26 58 26 98q0 22 -13 35.5t-35 13.5q-70 0 -136 -76q-31 -37 -55 -79q-38 -73 -61 -135.5t-63 -194.5z" />
<glyph unicode="V" horiz-adv-x="1270" d="M116 598q27 169 53 259.5t77 189.5q162 319 424 319q100 0 158.5 -47t58.5 -129q0 -99 -82 -276l-211 -453q-3 -6 -5.5 -12t-8.5 -19q-66 -139 -66 -209q0 -65 70 -65q33 0 72 20q42 24 107 78t114 107q122 134 231 354q58 112 91 202.5t80 260.5l194 133 q-23 -152 -44 -249t-51.5 -182.5t-84.5 -201.5q-77 -166 -164.5 -296t-183 -220t-194.5 -136.5t-198 -46.5q-68 0 -119.5 28t-80 79t-28.5 117q0 53 13 106q19 80 75 205l222 486l8 16q41 85 41 125q0 49 -51 49q-80 0 -149 -92q-27 -35 -54 -88q-35 -66 -55 -124.5 t-46 -168.5z" />
<glyph unicode="W" horiz-adv-x="1759" d="M102 611q21 143 41.5 217t67.5 172q86 179 198 272.5t240 93.5q103 0 165 -50q60 -50 60 -134q0 -92 -67 -236l-297 -639l633 717q3 3 14 19q49 59 88 59q33 0 76 -16q47 -21 47 -47q0 -27 -24 -78q-2 -5 -11 -25l-254 -579q-1 -2 -3.5 -8t-6.5 -13q-39 -81 -39 -121 q0 -51 58 -51q49 0 115.5 49.5t140 140t149.5 216.5q109 182 187 372q57 145 96 305l190 74q-28 -153 -53 -250q-24 -97 -59 -185q-34 -89 -90 -206q-78 -162 -166.5 -294t-178.5 -221.5t-182 -137.5q-91 -48 -178 -48q-95 0 -159.5 55.5t-64.5 139.5q0 56 17 113.5 t61 159.5q15 34 37 88l-411 -465q-81 -91 -180 -91q-60 0 -100 33q-40 31 -40 80q0 38 33 109l381 821q38 86 38 119q0 23 -11.5 37t-30.5 14q-88 0 -188 -143q-51 -74 -87 -168q-17 -51 -45 -154z" />
<glyph unicode="X" horiz-adv-x="1008" d="M-117 0q171 141 287 254q19 19 55 54t60 61q115 117 317 352v426q0 39 -22 39q-78 0 -238 -244l-39 -59l-77 194q96 133 172 197q110 92 233 92q164 0 164 -182v-252l189 199q78 84 173 155q30 25 152 107l-39 -225l-23 -19l-20 -20q-155 -137 -212 -205l-220 -256 q6 -139 13 -210q8 -71 28 -173q29 -131 92 -285h-229q-39 104 -58 193q-26 124 -39 289q-116 -148 -184 -222q-114 -122 -258 -260h-277z" />
<glyph unicode="Y" horiz-adv-x="1317" d="M96 613q21 156 42.5 237.5t68.5 177.5q79 164 191 251q113 87 247 87q66 0 114 -21q49 -22 75 -63q26 -40 26 -94q0 -42 -8 -78q-17 -68 -78 -200l-340 -750q184 155 281 242q94 86 153 143q139 138 275 295l96 186l2 4l4 11q21 40 36 54.5t36 14.5h82q45 0 45 -33 q0 -14 -2 -24q-4 -20 -6 -25l-414 -940q-88 -200 -160 -329t-130 -190t-107 -61q-32 0 -56 17t-24 39q0 48 133 274q22 38 55 100l107 220l115 235q-44 -43 -66 -65q-70 -73 -143 -137q-88 -82 -146 -126t-103 -61q-45 -19 -95 -19q-68 0 -111 35q-43 33 -43 87q0 82 71 235 q18 40 19 43l6 15l246 559q4 8 7.5 16.5t12.5 24.5q51 97 51 147q0 47 -50 47q-80 0 -150 -92q-34 -45 -53 -88q-35 -67 -54 -125t-45 -170z" />
<glyph unicode="Z" horiz-adv-x="869" d="M-150 -246q0 99 90 229q75 112 160 179q85 68 148 68q33 0 54.5 -16.5t21.5 -41.5q0 -58 -117 -159q-83 -73 -120.5 -129t-37.5 -110q0 -26 16.5 -43t43.5 -17q96 0 217 120q61 60 116.5 148t89 177t33.5 150q0 47 -31 76t-104 49q-70 22 -99.5 49t-29.5 70q0 45 27 80 q18 24 133 111q323 240 323 374q0 35 -25 54.5t-69 19.5q-119 0 -256 -92q-89 -58 -192 -174l61 291q88 61 158 94q122 53 234 53q83 0 146 -29.5t97.5 -84t34.5 -125.5q0 -106 -59 -203q-28 -43 -56 -74q-128 -141 -196 -182l-74 -47l-31 -27l19 -16q62 -18 98 -45 q92 -76 92 -209q0 -70 -19.5 -147.5t-56 -155.5t-88 -151t-112.5 -134q-198 -199 -410 -199q-93 0 -161.5 65t-68.5 154z" />
<glyph unicode="[" horiz-adv-x="637" d="M-74 -205l578 1776h369l-45 -139h-199l-488 -1500h199l-45 -137h-369z" />
<glyph unicode="\" horiz-adv-x="867" d="M139 -205l531 1776h166l-543 -1776h-154z" />
<glyph unicode="]" horiz-adv-x="637" d="M-7 -205l46 137h199l487 1500h-199l46 139h368l-577 -1776h-370z" />
<glyph unicode="^" d="M114 760l351 610h205l350 -610h-170l-285 485l-282 -485h-169z" />
<glyph unicode="_" d="M55 -142h1025v-116h-1025v116z" />
<glyph unicode="`" d="M384 1026h192l63 -250h-121z" />
<glyph unicode="a" horiz-adv-x="821" d="M-8 236q0 97 45 180t128 145t194.5 95.5t240.5 33.5q62 0 117 -6v-143q-53 10 -123 10q-112 0 -209.5 -41.5t-154 -113.5t-56.5 -154q0 -100 62 -100q66 0 144.5 84.5t152.5 234.5h170q-113 -245 -113 -270q0 -17 14 -17q29 0 209 148l8 6v-164l-10 -8q-9 -8 -17 -15 t-18 -14q-99 -83 -160 -115q-60 -32 -118 -32q-75 0 -84 101q-43 -55 -87 -78t-110 -23q-69 0 -120 30t-78 88t-27 138z" />
<glyph unicode="b" horiz-adv-x="791" d="M0 164v164q27 22 42 34.5t25 21.5q11 9 23 20q7 5 45 39q18 16 76 73l277 686l3 9q2 6 5 14q29 84 60 120q32 36 77 36q29 0 48 -20q18 -19 18 -50q0 -52 -18 -125q-22 -88 -43 -129l-206 -401l-168 -435q-12 -29 -12 -53q0 -43 39 -43q44 0 80.5 26.5t95.5 100.5 q-8 43 -8 84q0 91 24.5 171t64.5 128q41 47 87 47q81 0 81 -121q0 -76 -23 -157q-14 -51 -53 -119q29 -8 42 -8q39 0 109 51v-164q-61 -43 -123 -43q-59 0 -119 25q-74 -82 -119 -113q-81 -54 -164 -54q-80 0 -129 48.5t-49 128.5q0 24 9 80z" />
<glyph unicode="c" horiz-adv-x="680" d="M-8 244q0 122 63.5 224t172.5 160q110 58 243 58q191 0 191 -104q0 -21 -6 -43q-1 -6 -9 -29q-4 -8 -16 -35q-13 -29 -31 -64l-4 -8h-170l2 4q2 3 5 8.5t6 10.5q38 75 38 96q0 37 -47 37q-74 0 -137 -65q-48 -49 -75 -111t-27 -123q0 -123 100 -123q91 0 188 54 q76 42 201 137v-164q-132 -92 -217 -133q-103 -51 -205 -51q-120 0 -193 72t-73 192z" />
<glyph unicode="d" horiz-adv-x="891" d="M-8 236q0 111 59 213t155 164.5t200 62.5q33 0 92 -12q80 230 121 324t114 221q49 82 99 127q51 45 92 45q72 0 72 -172q0 -266 -113 -541q-38 -90 -77 -159t-94.5 -138.5t-137.5 -157.5l-2 -8q-4 -25 -4 -27q0 -34 30 -34q76 0 246 145q24 21 47 39v-164 q-114 -91 -194 -133q-94 -52 -162 -52q-75 0 -123 95q-67 -56 -116 -80q-50 -23 -105 -23q-88 0 -143.5 75t-55.5 190zM183 242q0 -100 63 -100q35 0 68 19q33 20 88 71q7 48 13.5 83.5t12.5 69.5q16 77 37 150q-24 6 -43 6q-60 0 -115.5 -43t-89.5 -112t-34 -144zM590 457 q56 75 79 114q24 39 54 105q37 87 66 170q34 101 52 175t38 196q-42 -57 -82 -137q-32 -67 -62 -144q-59 -152 -145 -479z" />
<glyph unicode="e" horiz-adv-x="676" d="M-9 242q0 112 66.5 215t177 165t230.5 62q52 0 92 -17.5t62 -50.5q22 -32 22 -73q0 -92 -61 -160q-46 -49 -105 -84q-60 -32 -116 -50t-167 -40q24 -74 95 -74q86 0 186 54q77 39 203 139v-164q-112 -83 -186 -119q-131 -65 -258 -65q-70 0 -124.5 32.5t-85.5 92.5 t-31 137zM200 342q117 25 188 69t71 93q0 18 -12 28q-13 11 -33 11q-63 0 -119 -53q-56 -52 -95 -148z" />
<glyph unicode="f" horiz-adv-x="545" d="M-76 -418q0 76 55 229q9 19 21 56l131 387l-26 -18l-35 -25q-14 -10 -37 -25t-33 -22v164q106 82 119 92q59 50 109 102l223 672q35 104 69 151.5t74 47.5q26 0 44 -23q18 -22 18 -57q0 -57 -22.5 -151.5t-51.5 -161.5l-159 -379l-326 -959q-9 -24 -9 -35q0 -16 15 -16 q43 0 104 155q37 84 64 195q20 89 29 187q40 23 80 51q9 7 23 16q14 10 22 17q53 38 123 96v-164q-59 -45 -62 -47.5t-63 -46.5q-5 -139 -32 -238q-19 -83 -63 -164q-120 -229 -275 -229q-55 0 -92 41t-37 102z" />
<glyph unicode="g" horiz-adv-x="832" d="M-8 246q0 130 77 232q77 103 215 159.5t312 56.5q47 0 117 -6l14 -145q-98 14 -151 14q-107 0 -198 -40.5t-143 -110.5t-52 -154q0 -45 17.5 -72.5t45.5 -27.5q50 0 111 51q25 22 53 53q56 67 139 209h164l-125 -309l21 16l190 133q10 8 17 12.5t16 10.5v-164 q-113 -79 -207 -156q-49 -41 -72 -61q-51 -44 -114 -113l-86 -203q-46 -107 -84 -148.5t-91 -41.5q-36 0 -60 26q-23 25 -23 66q0 91 59 194q53 93 170 234l26 72q-78 -54 -155 -54q-90 0 -146.5 74.5t-56.5 192.5z" />
<glyph unicode="h" horiz-adv-x="961" d="M0 164v164q57 42 82 65q54 44 129 119l289 707q39 93 61 121q33 32 70 32q30 0 51 -22.5t21 -56.5q0 -59 -28.5 -155t-65.5 -163l-168 -305l-142 -352l340 264q3 2 23 18q91 78 149 78q39 0 62 -15.5t23 -43.5q0 -45 -29 -107l-135 -282q-16 -33 -16 -45q0 -15 11 -15 q27 0 214 142l20 16v-164q-111 -89 -178 -125q-120 -68 -195 -68q-39 0 -64.5 23.5t-25.5 58.5q0 33 25 97l6 14l111 254l-398 -338l-33 -27q-56 -46 -80 -60t-51 -14q-26 0 -43 14q-16 14 -16 36q0 43 47 147q11 28 18 45l-16 -12l-58 -39l-8 -6h-2z" />
<glyph unicode="i" horiz-adv-x="506" d="M-1 164v164q82 70 109 96q11 9 26.5 24t29.5 27q43 47 86 101l37 92l195 6l-196 -448l-6 -19l-4 -10v-6q0 -8 9 -8q8 0 14 4l27 12l147 102l33 27v-164q-120 -96 -192 -131q-98 -54 -174 -54q-45 0 -71.5 23.5t-26.5 61.5q0 50 39 162l-5 -5q-4 -4 -7 -6q-13 -8 -30 -21 t-23 -18zM362 877q0 53 35 89t87 36q42 0 68 -27q26 -26 26 -70q0 -50 -36.5 -88.5t-84.5 -38.5q-40 0 -67.5 28.5t-27.5 70.5z" />
<glyph unicode="j" horiz-adv-x="545" d="M-119 -453q0 110 66 238q35 65 109 151l145 402q-41 -41 -72 -67q-52 -47 -125 -107v164q84 70 159 143q73 69 190 197l150 8l-203 -551l65 53l185 150v-164l-29 -24l-160 -146l-47 -43l-119 -113l-76 -203q-44 -120 -78 -153q-32 -35 -76 -35q-38 0 -61 27 q-23 28 -23 73zM371 875v2q2 53 36 89q35 36 87 36q42 0 67 -27q25 -26 25 -70q0 -52 -35 -89.5t-84 -37.5q-39 0 -68 29q-28 28 -28 68z" />
<glyph unicode="k" horiz-adv-x="951" d="M0 164v164q61 53 105 94q73 70 100 98l289 703q36 90 65 124t70 34q35 0 57 -23q23 -23 23 -57q0 -47 -24.5 -131.5t-55.5 -145.5l-180 -350l-64 -154q81 78 133 111q87 53 179 53q58 0 103 -19t70 -55q26 -35 26 -81q0 -102 -107 -199q-42 -38 -86.5 -62.5t-120.5 -52.5 q-1 -1 -2 -3t-2 -3q-16 -29 -16 -45q0 -20 22 -20q51 0 131 39q87 42 236 145v-164q-128 -87 -193 -117q-142 -68 -240 -68q-64 0 -103.5 38t-39.5 100q0 80 72 211q15 5 33 10.5t23 7.5q80 27 129 66q63 50 63 92q0 13 -8.5 22t-20.5 9q-48 0 -117.5 -50t-144.5 -137 t-138 -190q-57 -95 -101 -136q-45 -43 -87 -43q-59 0 -59 48t37 135l11 33q2 6 9 26z" />
<glyph unicode="l" horiz-adv-x="502" d="M-1 164v164q71 57 121 106q44 45 74 82l228 688q31 95 60 132.5t71 37.5q60 0 60 -79q0 -73 -21.5 -174t-48.5 -162l-140 -307l-147 -443q-8 -25 -8 -37q0 -9 7 -17q6 -7 16 -7q38 0 198 149l33 31v-164q-17 -14 -21 -16.5t-14.5 -11.5t-25.5 -21q-92 -79 -147 -107.5 t-118 -28.5q-119 0 -119 83q0 52 28 143q4 12 6 16l5 17q-61 -48 -97 -74z" />
<glyph unicode="m" horiz-adv-x="1299" d="M0 164v164l49 43l54 47l51 49l84 90l51 107l166 6l-111 -266l246 209q36 31 68 53t82 22q39 0 62 -17q24 -17 24 -46q0 -44 -59 -172q-16 -34 -23 -49l266 219q50 42 77.5 55.5t61.5 13.5q41 0 66 -17.5t25 -47.5q0 -23 -21 -70l-149 -317q-2 -2 -2 -4q-13 -23 -13 -35 t10 -12q14 0 31 10q99 56 203 129v-164q-119 -89 -199 -135q-95 -50 -166 -50q-39 0 -67 29q-27 28 -27 68q0 30 21 80l6 14l113 256l-390 -368l-7 -7q-8 -8 -11 -12q-60 -60 -90 -60q-27 0 -43.5 15.5t-16.5 40.5q0 12 4 41q1 2 4 14q4 12 6 17q6 9 19 43l121 276 l-377 -362l-11 -11q-5 -6 -10 -10q-63 -64 -100 -64q-26 0 -43 18q-16 18 -16 46q0 56 45 148q5 12 10 22l4 8q-13 -11 -61 -47z" />
<glyph unicode="n" horiz-adv-x="946" d="M-1 164v164q100 83 146 129l45 49l43 51l53 107l175 8l-129 -281l313 232q92 67 158 67q36 0 61 -18.5t25 -44.5q0 -20 -27 -80l-4 -8l-133 -299q0 -2 -2 -4q-1 -2 -2.5 -6.5t-3.5 -8.5q-6 -17 -6 -20q0 -12 14 -12q55 0 162 92q34 29 59 47v-164q-35 -26 -57 -43 q-108 -80 -174 -110q-67 -32 -131 -32q-41 0 -67 24.5t-26 62.5q0 45 21 92l116 262l-441 -373q-8 -4 -21 -18q-54 -50 -90 -50q-26 0 -42 18t-16 46q0 45 37 133q4 12 9 26q6 15 9 24z" />
<glyph unicode="o" horiz-adv-x="735" d="M-8 238q0 125 57 234q57 110 153 174q96 65 206 65q94 0 161 -56q66 -55 66 -133q0 -45 -47 -108q12 -34 12 -57q0 -32 -12 -78l29 -6h6q39 0 112 55v-164q-60 -39 -124 -39q-30 0 -84 12q-39 -49 -64 -71.5t-67 -44.5q-80 -42 -164 -42q-114 0 -177 69t-63 190zM180 260 q0 -55 22 -86.5t60 -31.5q43 0 96 43q7 5 35 26q-31 49 -31 88q0 87 92 152l5 26v5q0 22 -22 39q-22 18 -50 18q-52 0 -100 -40t-77.5 -104.5t-29.5 -134.5z" />
<glyph unicode="p" horiz-adv-x="1028" d="M-48 -467q0 53 47 215q32 108 59 191q28 83 62.5 173t99.5 249q-70 -68 -79 -76q-3 -3 -21 -19l-27 -24q-26 -22 -37 -31q-10 -9 -57 -47v164q46 36 70 56q25 20 48 39q24 19 45 36q14 11 28 24.5t29 26.5q35 29 94 88l23 78l143 8l-57 -176q60 79 109 117q88 70 186 70 q75 0 128 -54q52 -53 52 -129q0 -95 -62 -203q-36 -65 -106 -145q57 15 110 39q27 13 58 31q64 40 131 94v-164q-99 -74 -163 -106q-108 -56 -187 -56q-39 0 -100 17q-65 -32 -119 -32q-50 0 -85.5 33.5t-35.5 80.5q0 26 18 36q18 11 64 11q25 0 62 -2l14 -2q89 81 141 157 q73 111 73 185q0 18 -10 31.5t-26 13.5q-37 0 -108 -58q-71 -57 -138 -143q-192 -249 -264 -687q-19 -108 -41 -143q-31 -59 -92 -59q-34 0 -57 26q-22 26 -22 66z" />
<glyph unicode="q" horiz-adv-x="844" d="M-8 242q0 94 44 177q43 84 122.5 146.5t185.5 96.5t226 34h5q101 0 191 -38l6 -160q-123 63 -213 63q-101 0 -191.5 -42.5t-145 -113.5t-54.5 -149q0 -106 66 -106q50 0 108 51q25 20 54 55q59 75 135 211h166l-328 -754q-29 -66 -29 -88q0 -12 8 -20.5t17 -8.5 q21 0 51 39q63 78 109 195q3 12 24 82q20 85 23 193q180 144 272 223v-164l-18 -16l-19 -15l-41 -34l-41 -35l-28 -27q-11 -131 -26.5 -203t-51.5 -154q-108 -235 -299 -235q-69 0 -112.5 38t-43.5 99q0 54 39 139q2 9 6 17l123 299q-66 -58 -135 -58q-91 0 -148 73.5 t-57 189.5z" />
<glyph unicode="r" horiz-adv-x="703" d="M0 164v164q73 70 123 133q57 68 107 148q-27 42 -27 77q0 49 30 83t74 34t72 -27q29 -27 29 -69q0 -21 -2 -33h94q125 0 125 -94q0 -43 -30 -107l-125 -256q-8 -13 -8 -24q0 -15 11 -15q40 0 197 123l35 27v-164q-119 -95 -187 -133q-86 -52 -176 -52q-45 0 -74 28 q-28 26 -28 69q0 52 39 133l140 283l12 30q-11 11 -25 15h-51q-73 -111 -138 -180q-83 -92 -217 -193z" />
<glyph unicode="s" horiz-adv-x="654" d="M0 164v164q119 103 195 186q73 83 133 164q5 79 15 116t34 62q32 35 72 35q36 0 61 -24.5t25 -61.5q0 -58 -51 -127q16 -82 16 -182q0 -104 -20 -184q-14 -53 -51 -132q38 17 67 33q9 5 23 14q14 10 22 15q14 9 113 86v-164q-98 -73 -168 -108q-98 -50 -181 -50 q-20 0 -34 2l-9 2q-47 -31 -94 -31q-59 0 -101 33t-42 80q0 19 8 31t20 12h3q30 -6 98 -6h2q33 0 67 4q38 55 54 105q24 76 26 205l-59 -60q-58 -58 -154 -145q-48 -42 -90 -74z" />
<glyph unicode="t" horiz-adv-x="559" d="M-1 164v164q63 52 121 106q60 58 142 150l76 190h-150l46 137h157q51 203 103 295q53 93 119 93q24 0 40.5 -19t16.5 -49q0 -94 -86 -267l-13 -26q-8 -19 -12 -27h131l-30 -137h-150q-242 -548 -242 -602q0 -20 19 -20q48 0 244 153q21 18 22 19l6 4v-164 q-18 -12 -33 -21q-15 -10 -32 -22q-117 -80 -189.5 -111t-142.5 -31q-95 0 -95 79q0 55 47 155q14 33 18 45q-59 -37 -106 -73z" />
<glyph unicode="u" horiz-adv-x="951" d="M0 164v164q82 65 109 92l43 43l69 82l54 117l180 6l-195 -449q168 135 258 217q73 64 93 82q94 91 148 148l163 6q-108 -260 -198 -440q-8 -17 -8 -27q0 -14 13 -14q17 0 37 14l128 84l49 33l8 6v-164l-18 -14l-21 -15q-149 -106 -228 -135q-44 -14 -98 -21q-86 3 -86 81 q0 61 50 174q5 15 9 23.5t9 23.5l-306 -236q-84 -66 -159 -66q-38 0 -62 19q-24 20 -24 49q0 44 36 123q4 10 9 21l10 22z" />
<glyph unicode="v" horiz-adv-x="844" d="M-1 164v164q71 58 101 86l49 47l80 88l51 103l168 6l-190 -430l-6 -15q-17 -37 -17 -55q0 -39 40 -39t87.5 38.5t116.5 127.5q19 22 23 27q23 160 83.5 265t129.5 105q28 0 44.5 -24.5t16.5 -65.5q0 -69 -32 -160q-29 -72 -90 -151q15 -19 47 -19q64 0 143 66v-164 q-87 -61 -156 -61q-56 0 -131 49q-66 -74 -118 -109q-94 -64 -193 -64q-81 0 -130 40q-49 38 -49 104q0 49 16 103l-16 -13q-11 -7 -35 -25q-24 -17 -33 -24z" />
<glyph unicode="w" horiz-adv-x="1170" d="M0 164v164q38 28 68 55q47 41 137 139l57 130l170 8q-119 -338 -200 -480q-13 -21 -13 -34q0 -19 19 -19q34 0 127 90q75 77 127 152q44 62 90 153q28 54 49 74.5t53 20.5q27 0 44 -15q18 -15 18 -39q0 -10 -8 -41l-115 -337q-8 -17 -8 -31q0 -23 22 -23q34 0 89.5 50.5 t111.5 132.5q20 110 53 195q34 84 76 130q43 45 88 45q31 0 50 -22q20 -22 20 -58q0 -51 -27 -135q-30 -89 -100 -184q6 -21 30 -21q61 0 142 64v-164q-85 -49 -160 -49q-60 0 -113 33q-63 -71 -116 -107q-92 -62 -185 -62q-65 0 -96 35q-31 33 -39 111q-70 -70 -106 -92 q-80 -54 -166 -54q-62 0 -102 35.5t-40 90.5q0 43 25 110l-14 -10q-27 -17 -58 -41z" />
<glyph unicode="x" horiz-adv-x="875" d="M-1 164v164q59 55 93 90q94 96 164 153.5t123 83t98 25.5q38 0 61 -31.5t23 -83.5v-53l156 156h184l-340 -340v-139q0 -49 27 -49q39 0 99.5 38t160.5 127q5 3 14 13l13 10v-164q-100 -87 -162 -123q-101 -62 -178 -62q-69 0 -100.5 52t-32.5 168l-195 -197h-185l379 381 v90q-3 23 -18 23q-23 0 -137 -115q-47 -46 -99 -92q-84 -73 -148 -125z" />
<glyph unicode="y" horiz-adv-x="910" d="M0 164v164q102 85 135 119q53 49 99 100l43 115l176 6l-187 -434l464 428l155 6l-221 -514q25 24 56 49q54 42 153 102l19 11l18 12v-164q-157 -107 -209 -149q-49 -42 -69 -62q-46 -39 -111 -115q-4 -11 -19 -49q-62 -185 -120 -267q-57 -81 -124 -81q-38 0 -63 25 q-25 26 -25 65q0 86 56 185.5t162 227.5l151 347l-230 -201q-129 -111 -210 -111q-34 0 -55 18q-21 19 -21 48q0 48 37 129q6 18 8 23.5t6 13.5l-10 -6l-8 -4q-15 -9 -21 -14l-20 -13z" />
<glyph unicode="z" horiz-adv-x="830" d="M-76 -430q0 82 72 164q39 42 72 67q79 63 252 156q0 8 2 10q2 23 2 54q0 24 -2 39v6q-23 -5 -29 -6q-45 -11 -78 -11q-32 0 -56 18t-24 42q0 38 29 67q27 28 64 46q38 18 69 18q33 0 70 -6q158 128 158 231q0 30 -21 51q-20 21 -47 21q-48 0 -184 -125q-30 -27 -39 -35 l-174 -160q-5 -4 -21 -18q-16 -12 -39 -35v164l15 12l49 47l10 9l164 155q136 127 256 127q91 0 149 -51.5t58 -134.5q0 -103 -80 -201q-53 -66 -158 -135q19 -65 23 -92l43 33l43 32l94 72l94 74l70 53v-164l-334 -271q-75 -193 -139 -293q-56 -84 -131.5 -131t-153.5 -47 q-65 0 -107 42q-41 41 -41 106zM51 -424q0 -29 27 -29q53 0 109 60q30 35 47 67.5t45 110.5q-97 -51 -162.5 -111t-65.5 -98z" />
<glyph unicode="{" d="M282 -4q0 53 15 98l104 336q21 69 21 95q0 63 -76 94l45 139q49 12 81 31q31 20 52 53.5t39 91.5l111 352q40 126 96 201q31 40 96 63t148 23q27 0 41 -2h3h8l51 -2h16l-47 -147q-106 0 -151 -19q-60 -24 -101 -151l-105 -328q-33 -109 -43 -129q-5 -15 -22 -39 q-44 -55 -135 -74q67 -53 67 -131q0 -48 -20 -115l-101 -317l-16 -51l-5 -19q-4 -16 -4 -26q0 -81 167 -81l-47 -147q-94 4 -145 18t-87 47q-56 53 -56 136z" />
<glyph unicode="|" d="M475 -342v1706h183v-1706h-183z" />
<glyph unicode="}" d="M76 -203l47 145q107 3 152 21q58 23 100 152l105 328q41 129 72 168q43 57 129 73q-68 54 -68 129q0 48 21 115l100 317q0 5 2 7l4 18q13 37 16 66q-3 48 -34 67t-105 19h-24l46 147h6q11 2 37 2q69 0 125 -25.5t87.5 -71t31.5 -102.5q0 -62 -14 -102l-106 -334 q-19 -61 -19 -96q0 -68 76 -92l-45 -139q-74 -19 -110 -55.5t-62 -121.5l-113 -354q-39 -122 -81 -180q-41 -59 -110 -81t-198 -22q-37 0 -58 2h-10z" />
<glyph unicode="~" horiz-adv-x="1366" d="M247 1256q52 106 109 164q77 73 179 73q48 0 93 -15t122 -59q132 -72 207 -72q50 0 90 34.5t88 115.5l96 -75q-56 -111 -108 -158q-82 -78 -185 -78q-46 0 -91.5 15.5t-123.5 55.5q-71 40 -101 51q-31 12 -87 21q-63 -3 -103 -34.5t-90 -114.5z" />
<glyph unicode="&#xa9;" horiz-adv-x="1637" d="M200 682q0 189 96 351q95 163 255 259.5t344 96.5q196 0 361.5 -94t260.5 -257t95 -356q0 -189 -95 -352t-257 -259q-162 -95 -352 -95t-352.5 95t-258 258t-97.5 353zM295 682q0 -167 83 -310t224 -226.5t306 -83.5q123 0 235 49q112 47 196 133t131 199t47 239 q0 164 -81.5 307.5t-219.5 229.5q-138 84 -296 84q-170 0 -314 -83t-227.5 -225.5t-83.5 -312.5zM535 479q0 74 27.5 158t79 167.5t118.5 154.5q165 173 330 173q77 0 122 -42q46 -43 46 -117q0 -133 -119 -248q-55 -53 -109 -85t-163 -77l30 140q244 121 244 264 q0 59 -64 59q-97 0 -219 -125q-91 -95 -148.5 -211t-57.5 -202q0 -65 43.5 -107.5t109.5 -42.5q75 0 137 49q39 33 90 113l101 -53q-67 -100 -119 -142q-102 -82 -227 -82q-112 0 -182 71.5t-70 184.5z" />
<glyph unicode="&#xab;" horiz-adv-x="961" d="M91 355l325 292h178l-326 -303l197 -309h-144zM432 355l324 292h178l-326 -303l195 -309h-143z" />
<glyph unicode="&#xad;" horiz-adv-x="518" d="M-1 256l85 172h434l-67 -172h-452z" />
<glyph unicode="&#xae;" horiz-adv-x="1600" d="M150 682q0 188 94.5 351t254.5 259.5t345 96.5q195 0 360 -94t261 -256.5t96 -356.5q0 -189 -95.5 -352t-256.5 -259q-162 -95 -353 -95q-190 0 -353 95t-258 258t-95 353zM244 682q0 -166 83 -310q82 -143 223 -227q140 -83 306 -83q165 0 306 83q140 84 223 227 q82 144 82 310q0 165 -82.5 308t-221.5 229q-139 84 -296 84q-171 0 -314 -83q-143 -82 -226 -225t-83 -313zM494 328q0 96 104 412l23 65q43 135 90 217q79 133 203 133q81 0 126.5 -61t45.5 -168q0 -112 -50 -202.5t-139 -137.5q-26 -13 -32 -27q2 -8 22 -28l45 -45 q22 -25 35 -39.5t27 -28.5q49 -58 86 -119l-109 -73q-45 65 -76 106q-44 55 -67 82q-4 4 -18 20t-21 25l-19 18q-51 48 -51 91q0 38 78 88q88 59 129 124q39 64 39 150q0 113 -66 113q-34 0 -69 -35q-36 -42 -82 -176l-68 -201l-35 -205q-10 -64 -44.5 -114t-67.5 -50 q-39 0 -39 66z" />
<glyph unicode="&#xbb;" horiz-adv-x="961" d="M-2 35l326 305l-197 307h144l229 -319l-324 -293h-178zM338 35l326 305l-196 307h143l229 -319l-324 -293h-178z" />
<glyph unicode="&#x401;" horiz-adv-x="1032" d="M98 201q0 65 33 136q34 71 90 129q55 59 117 85q37 16 37 37q0 17 -22 72q-35 92 -35 151q0 103 52 204t141 179.5t204 125t233 46.5q97 0 151 -38t54 -105q0 -40 -17.5 -81t-66.5 -110l-200 -284l-136 114l187 256l6 9q25 33 25 49q0 28 -50 28q-56 0 -96 -20 q-78 -35 -147.5 -102.5t-110.5 -148.5q-41 -80 -41 -150q0 -52 59 -148q44 -66 44 -96q0 -39 -119 -98q-197 -97 -197 -201q0 -38 32.5 -60t90.5 -22q153 0 297 111q48 38 84 77.5t84 106.5h205q-58 -105 -94.5 -156t-94.5 -104q-229 -213 -510 -213q-129 0 -208 61 q-81 61 -81 160zM699 1538v2q1 54 36 89.5t86 35.5q43 0 68 -26.5t25 -71.5q0 -51 -34.5 -88t-82.5 -37q-41 0 -70 28q-28 27 -28 68zM1077 1534v2q2 54 37.5 89.5t85.5 35.5q42 0 67.5 -27t25.5 -71q0 -52 -34 -89q-34 -36 -83 -36q-41 0 -70 27q-29 28 -29 69z" />
<glyph unicode="&#x404;" horiz-adv-x="1331" d="M81 615q27 124 50 204t49 141q27 62 70 138q75 129 176 199q102 70 215 70q62 0 112 -26q49 -25 77 -69t28 -98q0 -99 -53 -209l-359 -754q166 147 278.5 251t190.5 185q79 82 148 165.5t176 224.5l84 149l213 57l-280 -587q-107 -225 -146 -396q-25 -97 -33 -235 l-205 -46q10 129 33 234q20 85 40 144t64 159l-433 -430q-104 -101 -209 -101q-57 0 -93.5 34t-36.5 86q0 49 17 102q18 52 65 152q3 5 4.5 8.5t3.5 5.5l304 672q26 58 26 98q0 22 -13 35.5t-35 13.5q-70 0 -136 -76q-31 -37 -55 -79q-38 -73 -61 -135.5t-63 -194.5z M880 1551h191l63 -248l-120 -2z" />
<glyph unicode="&#x406;" horiz-adv-x="809" d="M14 164v92h781v-92h-781zM14 572v84l781 227v-90l-638 -180l640 -207v-88z" />
<glyph unicode="&#x408;" horiz-adv-x="1180" d="M-45 19q0 61 47.5 99t122.5 38q78 0 156 -20q27 43 41.5 68.5t30.5 51.5q16 37 24 53q21 42 45 117h-203l62 189h207q59 205 89 289t81 188q42 84 96 144q53 61 113 93q61 31 122 31q50 0 93 -31t67 -84q25 -54 25 -118q0 -81 -59 -254q-4 -13 -8 -29l-9 -27l-215 -51 q25 61 35 82q45 94 60.5 146.5t15.5 103.5q0 28 -11.5 45.5t-29.5 17.5q-38 0 -78 -53q-31 -33 -49 -78q-49 -98 -73.5 -164t-80.5 -251h211l-65 -188l-205 -1q-29 -86 -68 -174q-32 -69 -78 -143l19 -4l18 -2q75 -8 109 -8q45 0 108 6q19 2 80 10q68 11 211 41l-59 -217 l-19 -4l-16 -4q-158 -25 -205 -29q-55 -6 -107 -6q-65 0 -135 8q-73 11 -141 45q-113 -61 -203 -61q-78 0 -125 36q-47 37 -47 99z" />
<glyph unicode="&#x410;" horiz-adv-x="1207" d="M-43 0q40 97 70 156l11 21l14 29l18 36q21 38 28 52q8 13 25 46q18 32 37 66q-41 -4 -92 -10q-27 -4 -46 -7.5t-47 -7.5l54 172q37 6 48.5 7.5t31.5 4.5q56 9 133 15q87 135 139 210t100.5 135t110.5 126q294 315 557 315q72 0 111 -31.5t39 -89.5q0 -35 -18 -106l-4 -16 l-258 -912q18 -54 18 -86q0 -53 -33 -89t-82 -36q-52 0 -84 36t-32 93q0 26 12 78l6 19q-54 57 -87 82q-35 26 -85 49q-69 32 -128 44.5t-163 16.5q-38 -62 -58 -102q-48 -85 -116 -232l-41 -84h-189zM447 576q139 -19 225 -51q84 -33 199 -111l203 688l2 4l12 41q2 2 2 10 q2 7 2 13q0 24 -21 24q-22 0 -89.5 -40.5t-125.5 -90.5q-102 -87 -182 -184q-93 -105 -227 -303z" />
<glyph unicode="&#x411;" horiz-adv-x="1354" d="M213 68q0 83 51 187t144 208l313 707q7 18 23 24q-85 -6 -134.5 -23t-87.5 -53q-49 -49 -67 -124q-31 -109 -31 -236v-27l-207 -116q-2 28 -2 53q0 60 12 141t32 163q20 83 42 136q41 95 133 168q65 51 136 71q72 19 192 19h649l-78 -174h-311q-43 0 -87 -36t-68 -91 l-148 -330q91 43 178 43q100 0 187.5 -52.5t139.5 -141.5t52 -191q0 -95 -43.5 -178t-116.5 -125q-144 -84 -430 -88l-164 -2h-24l72 178q30 -2 63 -2q168 0 272 21q85 17 131 68q45 52 45 128q0 60 -32.5 111.5t-88.5 82t-120 30.5q-111 0 -195 -102q-54 -67 -127 -253 q-50 -128 -73 -172.5t-58 -81.5q-15 -17 -42.5 -29t-49.5 -12q-36 0 -59 27q-23 28 -23 74z" />
<glyph unicode="&#x412;" horiz-adv-x="1114" d="M-29 -25l447 1025q84 191 162 268q97 100 250 100q90 0 154.5 -37.5t98 -110.5t33.5 -175q0 -201 -127 -328q-40 -38 -71 -55q-1 -1 -123 -58q-13 -8 -31 -16l12 -12q256 -62 256 -256q0 -68 -33 -126t-95.5 -98.5t-147.5 -58.5q-118 -26 -274 -33q-82 -4 -164 -4h-41 l76 178h88q195 0 296 35t101 103q0 34 -28 56q-29 23 -95 44q-87 26 -124 61q-38 36 -38 91q0 53 36 94.5t126 93.5q119 69 167 134t48 157q0 145 -109 145q-114 0 -176 -141l-467 -1076h-207z" />
<glyph unicode="&#x413;" horiz-adv-x="1002" d="M-79 29l106 164l8 -2l33 -13q22 -8 51 -8q104 0 212.5 105t195.5 290q82 180 142 355.5t70 267.5q-72 0 -107 -8.5t-75 -34.5q-52 -36 -74 -68q-28 -43 -45.5 -126.5t-17.5 -169.5q0 -29 2 -54l-211 -116l-3 20q0 130 25.5 264t67.5 221q116 250 482 250h628l-86 -176 h-22h-191l-170 2l-14 -2l-6 -16l-53 -228q-22 -88 -63.5 -202.5t-91 -221.5t-97.5 -186q-65 -103 -152 -185t-179.5 -127t-174.5 -45q-116 0 -190 50z" />
<glyph unicode="&#x414;" horiz-adv-x="1411" d="M-80 117q0 58 58 90q59 31 168 31q101 0 272 -28q62 59 113 120q72 95 168 344q49 125 68.5 167t62.5 120q-160 124 -250 176q-98 55 -182 55q-58 0 -58 -51q0 -42 41 -96q18 -23 47 -51q68 -63 187 -140l-74 -151q-128 78 -180.5 119t-110.5 106q-96 110 -96 240 q0 92 56.5 144t156.5 52q126 0 274 -67q98 -46 285 -176l70 102l135 -102l-72 -111q141 -161 203 -264q88 -148 88 -312q0 -218 -146 -333t-423 -115q-73 0 -156 12q-68 12 -166 42q-50 -24 -96 -35q-76 -19 -168 -19q-125 0 -200 35.5t-75 95.5zM643 178l33 -6 q92 -12 129 -12q107 0 186 35t122 100q42 66 42 154q0 112 -67 229q-37 62 -119 152q-18 -38 -33 -72q-5 -12 -31 -82l-14 -39q-44 -129 -121 -268q-46 -85 -127 -191z" />
<glyph unicode="&#x415;" horiz-adv-x="1032" d="M98 201q0 65 33 136q34 71 90 129q55 59 117 85q37 16 37 37q0 17 -22 72q-35 92 -35 151q0 103 52 204t141 179.5t204 125t233 46.5q97 0 151 -38t54 -105q0 -40 -17.5 -81t-66.5 -110l-200 -284l-136 114l187 256l6 9q25 33 25 49q0 28 -50 28q-56 0 -96 -20 q-78 -35 -147.5 -102.5t-110.5 -148.5q-41 -80 -41 -150q0 -52 59 -148q44 -66 44 -96q0 -39 -119 -98q-197 -97 -197 -201q0 -38 32.5 -60t90.5 -22q153 0 297 111q48 38 84 77.5t84 106.5h205q-58 -105 -94.5 -156t-94.5 -104q-229 -213 -510 -213q-129 0 -208 61 q-81 61 -81 160z" />
<glyph unicode="&#x416;" horiz-adv-x="1303" d="M20 0v322q30 38 54 60.5t114 94.5q104 83 174 125q12 9 172 103l27 14l-12 35q-68 193 -97 317q-31 142 -37 295h173q0 -28 2 -37l4 -96v2q4 -22 7 -45q3 -22 12 -61q16 -84 29 -124q14 -40 55 -124l213 485h206l-198 -448q69 49 106 78t71.5 60.5t80.5 80.5 q55 58 94 108q39 47 76 121h198q-52 -120 -114 -200q-80 -101 -201 -213t-215 -170l-172 -111l-29 -20q6 -19 6 -21q22 -49 93 -149l122 -179q110 -159 320 -303h-324q-28 36 -75 101q-128 171 -172 254q-25 44 -40 70.5t-18 31.5l-10 12l-213 -469h-211l231 504l-31 -27 l-110 -79q-165 -117 -271 -271l-75 -108q0 -1 -15 -19z" />
<glyph unicode="&#x417;" horiz-adv-x="869" d="M-150 -246q0 99 90 229q75 112 160 179q85 68 148 68q33 0 54.5 -16.5t21.5 -41.5q0 -58 -117 -159q-83 -73 -120.5 -129t-37.5 -110q0 -26 16.5 -43t43.5 -17q96 0 217 120q61 60 116.5 148t89 177t33.5 150q0 47 -31 76t-104 49q-70 22 -99.5 49t-29.5 70q0 45 27 80 q18 24 133 111q323 240 323 374q0 35 -25 54.5t-69 19.5q-119 0 -256 -92q-89 -58 -192 -174l61 291q88 61 158 94q122 53 234 53q83 0 146 -29.5t97.5 -84t34.5 -125.5q0 -106 -59 -203q-28 -43 -56 -74q-128 -141 -196 -182l-74 -47l-31 -27l19 -16q62 -18 98 -45 q92 -76 92 -209q0 -70 -19.5 -147.5t-56 -155.5t-88 -151t-112.5 -134q-198 -199 -410 -199q-93 0 -161.5 65t-68.5 154z" />
<glyph unicode="&#x418;" horiz-adv-x="1331" d="M81 615q27 124 50 204t49 141q27 62 70 138q75 129 176 199q102 69 215 69q62 0 111.5 -25t77.5 -69t28 -98q0 -99 -53 -209l-359 -754q179 157 287 256.5t186 180.5t148 167q71 86 172 222l84 149l213 57l-280 -587q-107 -225 -146 -396q-25 -97 -33 -235l-205 -46 q10 129 33 234q20 85 40 144t64 159l-433 -430q-104 -101 -209 -101q-57 0 -93.5 34t-36.5 86q0 49 17 102q18 52 65 152q3 5 4.5 8.5t3.5 5.5l304 672q26 58 26 98q0 22 -13 35.5t-35 13.5q-70 0 -136 -76q-31 -37 -55 -79q-38 -73 -61 -135.5t-63 -194.5z" />
<glyph unicode="&#x419;" horiz-adv-x="1331" d="M81 615q27 124 50 204t49 141q27 62 70 138q75 129 176 199q102 70 215 70q62 0 112 -26q49 -25 77 -69t28 -98q0 -99 -53 -209l-359 -754q241 210 360 321.5t208.5 216.5t224.5 288l84 149l213 57l-280 -587q-107 -225 -146 -396q-25 -97 -33 -235l-205 -46 q9 126 33 234q20 88 38 142q19 53 62 147l-429 -416q-104 -101 -209 -101q-57 0 -93.5 34t-36.5 86q0 49 17 102q18 52 65 152q3 5 4.5 8.5t3.5 5.5l304 672q26 58 26 98q0 22 -13 35.5t-35 13.5q-70 0 -136 -76q-31 -37 -55 -79q-38 -73 -61 -135.5t-63 -194.5zM977 1417 q0 58 45 95t115 37q64 0 135 -16l186 122l-8 -174q-67 -48 -73 -51q-25 -16 -115 -69q-95 -52 -160 -52q-58 0 -91.5 29t-33.5 79z" />
<glyph unicode="&#x41a;" horiz-adv-x="1028" d="M20 0l279 596q-7 14 -13 23q-24 39 -24 67q0 53 108 113q22 12 27 16l240 531h207l-197 -426q145 107 244 207q90 92 182 219h195q-73 -121 -116 -179.5t-105 -121.5q-41 -43 -98.5 -94t-122.5 -102q-66 -50 -130 -93.5t-126 -79.5q-50 -26 -50 -45q0 -24 132 -207 q124 -169 217 -254q83 -80 219 -170h-323q-60 60 -90 94q-71 88 -198 271l-24 37l-25 34l-196 -436h-212z" />
<glyph unicode="&#x41b;" horiz-adv-x="942" d="M-163 0q95 85 216 258q121 174 215 363l281 551q36 67 58.5 98.5t56.5 58.5q48 37 110 37q44 0 68 -18q21 -18 31 -47q18 -76 18 -176l8 -1088l-192 -35v49v193v252l-4 481q0 39 -21 39q-13 0 -26 -22l-7 -17l-237 -469l-107 -184l-125 -191q-72 -104 -102 -133h-241z " />
<glyph unicode="&#x41c;" horiz-adv-x="1407" d="M-165 -21q75 76 114 120.5t81 103.5q79 110 153 241q72 130 183 365q84 174 141 282.5t93 166.5q59 94 148 94q51 0 83 -31q31 -30 31 -80q0 -14 -4.5 -59t-34.5 -170l-12 -49l-99 -477l402 499l27 31l37 39q74 83 94 104q73 84 121 127q47 44 86 62t84 18q47 0 78.5 -23 t31.5 -59q0 -50 -38 -125l-107 -204q-133 -256 -198 -404q-64 -147 -101 -285q-26 -101 -35 -229l-213 -35q12 190 53 332q20 76 64 184q56 146 201 402l-297 -363l-144 -188l-137 -184q-17 -25 -22 -31q-55 -78 -92.5 -106.5t-84.5 -28.5q-38 0 -60 21q-22 22 -22 59 q0 47 8 88l31 131l4 16l131 574l-6 -15q-24 -44 -29 -53q-8 -17 -14 -27q-5 -9 -6 -12l-111 -233q-87 -185 -188 -342q-63 -103 -178 -247h-247z" />
<glyph unicode="&#x41d;" horiz-adv-x="1434" d="M-150 164q0 68 47 128t137 104q88 45 207 69q84 16 193 25q117 4 211 6q70 125 107.5 203t73.5 178q46 121 86 317l190 35q-13 -119 -26.5 -186.5t-43.5 -161.5q-31 -100 -63 -173t-98 -196q97 5 194 21l25 65l104 301q50 146 114 257q64 112 131 171q66 60 128 60 q25 0 25 -17q0 -14 -16 -45q-100 -220 -133 -303q-35 -82 -62 -160q-44 -118 -94 -284l112 37l48 -166q-47 -18 -86 -27q-25 -8 -144 -38q-34 -103 -47 -154q-15 -46 -23 -80q-14 -54 -33 -143l-202 -1q35 136 98 342l-33 -4q-85 -9 -174 -14l-51 -4q-95 -103 -145 -150 q-50 -46 -105 -83q-168 -113 -381 -113q-126 0 -198.5 48.5t-72.5 135.5zM39 176q0 -43 78 -43q120 0 240 68q64 37 151 117q-243 -15 -356 -49t-113 -93z" />
<glyph unicode="&#x41e;" horiz-adv-x="1215" d="M133 332q0 97 27.5 205t75.5 211.5t117.5 201t148.5 173.5q116 109 254 176t246 67q49 0 77.5 -21t28.5 -59q0 -74 -110 -98l-39 -8q-118 -26 -233.5 -108t-206.5 -200q-90 -118 -142.5 -254t-52.5 -265q0 -91 48.5 -148t125.5 -57q72 0 147.5 34t135.5 93q80 80 146 186 t104 214t38 192q0 79 -59 79q-150 0 -205 -282l-209 -92q8 91 18.5 138t37.5 105q61 142 162.5 221.5t222.5 79.5q66 0 117 -29t79.5 -82t28.5 -122q0 -74 -32.5 -195t-75.5 -209q-56 -115 -131 -208.5t-161 -157.5t-182 -98.5t-194 -34.5q-106 0 -186 43t-123.5 122.5 t-43.5 186.5z" />
<glyph unicode="&#x41f;" horiz-adv-x="1235" d="M-115 27l111 162q33 -27 86 -27q155 0 311 225q38 52 70 111t65 134t89 218q56 147 70 199q13 53 18 134h-23q-122 0 -194 -69q-34 -31 -60 -86q-21 -48 -28 -102q-4 -36 -13 -184v-19l-209 -114q-2 12 -2 22q-2 12 -2 35q0 105 33 244q25 114 58 187.5t83 129.5 q57 60 161 100q105 39 206 39h709l-27 -174l-49 -2q-12 -19 -12 -20q-55 -97 -133 -322l-89 -252q-37 -106 -68 -211q-31 -104 -53 -200t-30 -165l-223 -21l4 17q31 118 88 307q74 246 94 308q54 144 97 251q71 180 118 285l9 21l-258 -7q-5 -72 -23.5 -157.5t-51.5 -183.5 q-32 -99 -72.5 -193t-88.5 -182q-145 -269 -293 -383q-60 -47 -144 -75t-159 -28q-50 0 -83 9q-33 10 -92 39z" />
<glyph unicode="&#x420;" horiz-adv-x="983" d="M90 -29q0 66 30.5 195t89.5 309t126 351q44 115 84 196q39 82 78 141t84 105q113 119 260 119q84 0 145 -42q62 -41 94.5 -119.5t32.5 -182.5q0 -150 -43 -290.5t-117.5 -250.5t-170.5 -173t-197 -63q-102 0 -102 89q0 70 79 92l35 10q70 19 129 70t102 128.5t66.5 173.5 t23.5 203q0 179 -104 179q-66 0 -110 -57q-58 -67 -135 -226q-59 -119 -156 -399l-10 -33l-13 -35q-14 -185 -45.5 -317.5t-78.5 -199.5t-107 -67q-30 0 -50 26.5t-20 67.5z" />
<glyph unicode="&#x421;" horiz-adv-x="1112" d="M133 371q0 113 43.5 240.5t123.5 253t190 235.5q266 266 526 266q82 0 142 -29t92 -84t32 -130q0 -204 -186 -377q-85 -79 -171 -129q-87 -49 -263 -119l47 213q108 50 162 86t116 96q110 107 110 219q0 92 -101 92q-158 0 -349 -190q-92 -93 -167 -208t-117.5 -225.5 t-42.5 -197.5q0 -98 69 -164q70 -65 174 -65q122 0 220 76q61 51 141 172l160 -80q-63 -92 -100 -135.5t-87 -81.5q-159 -125 -362 -125q-116 0 -208 49q-91 49 -142.5 139t-51.5 203z" />
<glyph unicode="&#x422;" horiz-adv-x="1401" d="M174 991q0 106 197 152l362 82q115 25 293.5 42t343.5 17q137 0 187 -39q18 -13 31 -39q12 -25 12 -51q0 -34 -20 -82q-21 -47 -56 -88q-24 -33 -141 -155l-162 86l9 16l38 39l52 59q41 44 41 70q0 12 -7 15t-35 3q-6 0 -18 -1t-19 -1q-16 -1 -49 -2q-34 -1 -51 -2 q-91 -5 -127 -10l-6 -18q-25 -74 -55.5 -154t-53.5 -138q-23 -57 -116 -284q-84 -199 -127 -287.5t-140 -261.5h-256q47 52 70 92t86 170l158 326q61 132 123 277q42 98 94 227l12 26q-27 -3 -29 -4q-185 -22 -360 -77q-37 -12 -37 -29q0 -27 121 -94q44 -25 59 -35 q2 -2 7 -5.5t12 -8.5l-154 -127q-105 62 -186 131q-47 37 -75 82.5t-28 80.5z" />
<glyph unicode="&#x423;" horiz-adv-x="1313" d="M91 613q15 145 42.5 240t87 206t123.5 172.5t154 97.5q79 31 151 31q62 0 110 -22.5t74.5 -63.5t26.5 -92q0 -81 -47 -180l-39 -86l-340 -756l14 14l164 140q38 32 176 161q118 109 160 146q97 89 127 122t68 93l107 211q13 29 20 36.5t25 12.5q30 8 79 8q39 0 53.5 -7.5 t14.5 -27.5q0 -17 -20 -69l-23 -64l-20 -43l-424 -940q-47 -106 -105 -180.5t-145 -141.5q-166 -131 -322 -131q-104 0 -173 63t-69 158q0 19 2 31l256 129q-58 -80 -58 -141q0 -62 63 -62q50 0 115.5 40.5t125.5 106.5t93 136l87 185l109 215l14 28l-23 -18l-184 -182 q-58 -56 -124 -109q-69 -54 -118 -75.5t-106 -21.5q-68 0 -108 36.5t-40 97.5q0 70 47 172l320 719l21 43q24 58 24 96q0 41 -40 41q-58 0 -94 -20.5t-74 -73.5q-96 -141 -141 -352l-4 -23z" />
<glyph unicode="&#x424;" horiz-adv-x="1981" d="M139 326q0 119 43.5 267.5t118 287.5t164.5 240q96 106 238.5 175.5t263.5 69.5q72 0 145 -24q54 -20 79 -37.5t65 -65.5l8 -10l67 137l213 27l-67 -162q115 74 198 104.5t170 30.5q44 0 72 -21.5t28 -54.5q0 -16 -10 -36q-11 -22 -24 -33q-22 -17 -95 -35 q-172 -41 -322 -169t-238 -306t-88 -361q0 -90 45 -146t118 -56q71 0 148 32t137 87q60 56 125 157q167 268 167 453q0 69 -67 69q-70 0 -125 -78.5t-73 -205.5l-205 -86v20q0 80 33 170q32 91 87.5 169t121.5 122q85 59 186 59q71 0 124.5 -26.5t82 -77.5t28.5 -119 q0 -112 -45 -250.5t-124 -269.5q-87 -146 -189 -231q-101 -85 -240 -129q-98 -33 -198 -33q-65 0 -133 27.5t-97 66.5l-59 76l-6 8l-74 -178h-209l39 82q-88 -50 -142 -66t-145 -16q-94 0 -172 45.5t-123 124t-45 176.5zM334 363q0 -55 10 -89q10 -33 35 -63q30 -37 57 -48 q27 -13 78 -13q109 0 207 78q84 67 156.5 163t120.5 207l96 223q41 94 41 183q0 47 -21 90q-31 61 -62.5 80.5t-105.5 19.5q-87 0 -168.5 -48.5t-177.5 -158.5q-266 -300 -266 -624z" />
<glyph unicode="&#x425;" horiz-adv-x="1008" d="M-117 0q171 141 287 254q19 19 55 54t60 61q115 117 317 352v426q0 39 -22 39q-78 0 -238 -244l-39 -59l-77 194q96 133 172 197q110 92 233 92q164 0 164 -182v-252l189 199q78 84 173 155q30 25 152 107l-39 -225l-23 -19l-20 -20q-155 -137 -212 -205l-220 -256 q6 -139 13 -210q8 -71 28 -173q29 -131 92 -285h-229q-39 104 -58 193q-26 124 -39 289q-116 -148 -184 -222q-114 -122 -258 -260h-277z" />
<glyph unicode="&#x426;" horiz-adv-x="1565" d="M38 615q41 188 74 283t95 200q73 129 175 198.5t216 69.5q62 0 111.5 -25t77.5 -69t28 -98q0 -99 -53 -209l-359 -754q179 157 288 256.5t184 178t145.5 164.5t175.5 227l84 149l256 51l-55 -96l-76 -162l-78 -158q-14 -30 -29 -63t-41 -88l-45 -105q-33 -72 -41 -100 l-12 -47l-25 -70l-20 -73q-17 -62 -19 -95q18 30 29 43q28 40 91 105l12 12q105 37 209 37h29q-64 -83 -93.5 -129.5t-56.5 -107.5q-33 -79 -39 -146q37 32 82 47q51 20 139 41v-168q-5 -2 -20 -6q-66 -21 -80 -25q-41 -15 -92 -43q-38 -22 -52 -36q-15 -13 -36 -46 q-6 -89 -35 -162q-28 -74 -72 -114q-43 -41 -94 -41q-41 0 -69 36q-30 35 -30 84q0 141 142 267l4 22l6 56l4 28l4 21q-32 -11 -65 -11q-59 0 -93.5 31t-34.5 85q0 52 29 174q33 150 88 260l56 115q-54 -54 -86 -91q-172 -184 -438 -432l-70 -55q-57 -46 -143 -46 q-53 0 -90 35q-36 34 -36 85q0 50 17 104q18 54 65 150q3 5 4.5 8.5t3.5 5.5l304 672q26 66 26 98q0 22 -13.5 35.5t-37.5 13.5q-70 0 -133 -76q-31 -37 -55 -79q-40 -76 -63.5 -138.5t-60.5 -191.5z" />
<glyph unicode="&#x427;" horiz-adv-x="1323" d="M92 613l5 16l28 180q25 151 101 279q77 127 185 202q109 74 222 74q106 0 163 -48t57 -138q0 -37 -14 -87q-14 -49 -45 -125t-97 -222l-265 -580l21 19l158 135l182 170l186 166q60 55 146 167q5 9 10 15q4 7 8 12l98 201l17 33q9 21 30 28l9 1q11 1 22 1l53 4h9 q57 0 57 -45q0 -23 -24 -82l-211 -473l-226 -493q-153 -339 -166 -505l-229 -30q3 22 4 22q15 70 59 193q48 136 77 206q29 71 110 243l101 213l20 43q-24 -28 -33 -39q-74 -85 -207 -203q-110 -99 -181 -140t-136 -41q-64 0 -108 36t-44 88q0 44 25 112q28 86 75 197 l246 561l31 60q28 56 28 110q0 25 -9.5 34t-37.5 9q-63 0 -118 -51t-99 -150.5t-73 -240.5l-9 -31z" />
<glyph unicode="&#x428;" horiz-adv-x="1946" d="M82 613q13 108 64.5 252.5t117.5 255.5q68 111 170 176t211 65q89 0 150 -51.5t61 -126.5q0 -3 -1 -10q-1 -6 -1 -10q-4 -78 -28 -144.5t-113 -253.5l-133 -276q-109 -225 -115 -242q-1 -3 -6 -12.5t-10 -24.5l33 33l225 231q90 94 250 240q108 98 153 142.5t73.5 83 t60.5 96.5l84 147l215 53q-12 -18 -14 -20q-35 -62 -107 -215l-133 -275l-132 -297q-74 -167 -77 -182q-2 -3 -9 -31q87 84 164 168q184 194 382 381q106 102 146.5 148.5t86.5 119.5l86 146l213 59q-6 -18 -8 -18q-15 -43 -100 -207q-5 -7 -119 -254q-108 -227 -135 -291 q-43 -106 -72 -233t-31 -213l-200 -48v19q0 41 14 127q25 142 69 270q14 39 24.5 68.5t14.5 42.5l-289 -289l-73 -72q-26 -27 -40 -40q-65 -63 -118 -93q-50 -25 -107 -25q-59 0 -95 34.5t-36 89.5q0 165 143 387l-335 -334q-103 -103 -161 -138q-59 -37 -124 -37 q-63 0 -99 33t-36 89q0 59 26 121q54 134 131 301q87 193 148 315q113 214 113 299q0 20 -14 32.5t-36 12.5q-52 0 -106 -51q-50 -50 -82 -105q-31 -56 -55.5 -121.5t-67.5 -205.5z" />
<glyph unicode="&#x429;" horiz-adv-x="2159" d="M120 613q12 109 63.5 253.5t117.5 254.5q43 73 105.5 127.5t134.5 84t143 29.5q88 0 148.5 -51.5t60.5 -126.5v-20q-5 -78 -28.5 -144.5t-113.5 -253.5l-133 -276q-47 -98 -77 -159q-29 -61 -40 -83l-14 -37l30 33l224 233q48 55 229 220q142 128 193.5 184t118.5 156 l82 147l217 53q-14 -20 -15 -20q-18 -30 -106 -215l-133 -275l-131 -297q-77 -173 -80 -182q-1 0 -8 -31q12 11 22 21q37 36 140 153q77 87 163 170l216 203q123 117 248 270l78 146l200 57l-49 -98l-88 -160q-43 -86 -76 -160l-69 -149q-32 -66 -48 -105l-51 -116l-16 -43 l-23 -76l-20 -70q-6 -18 -6 -37q0 -3 4 -36q19 35 53 73q36 43 68 64l18 6q61 22 76 25q23 6 74 18q53 12 79 12h3l-15 -22l-76 -103q-39 -50 -71.5 -130.5t-42.5 -150.5q65 48 139 66l63 17l19 4v-181h-8q-24 0 -92 -20q-85 -28 -168 -86q-5 -10 -7 -15.5t-4 -9.5 q-4 -14 -14 -72q-16 -107 -68.5 -174t-119.5 -67q-40 0 -69.5 36t-29.5 84q0 69 42 147q43 78 102 118q0 34 2 45q0 7 6 35q6 25 8 49q-32 -11 -78 -11q-133 0 -133 142q0 19 2 27q5 46 27.5 123t43.5 125l54 118l12 35l-274 -301q-55 -63 -123 -122t-108 -83 q-47 -25 -107 -25q-59 0 -94 34.5t-35 91.5q0 178 151 409l-343 -358q-92 -94 -158 -134q-65 -41 -129 -41q-62 0 -98 32.5t-36 89.5t24 121q74 172 133 301q113 252 148 315q113 213 113 299q0 20 -14 32.5t-37 12.5q-50 0 -104 -51q-48 -45 -83 -105q-30 -54 -55.5 -122 t-67.5 -205z" />
<glyph unicode="&#x42a;" horiz-adv-x="1274" d="M121 594v15q0 104 49 249.5t127 270.5q68 104 146 159q47 34 114.5 56t128.5 22h310l-457 -997q-25 -51 -25 -109q0 -59 27.5 -83.5t91.5 -24.5q122 0 216 63.5t204 218.5q159 233 159 422q0 84 -61 84q-58 0 -113 -60t-69 -138l-14 -78l-2 -10l-205 -89q-6 17 -6 39 q0 74 63 222q37 86 97 151q60 66 134 101.5t152 35.5q62 0 112.5 -30t78.5 -84t28 -123q0 -84 -20.5 -174t-58 -175.5t-92.5 -168.5t-118 -146q-70 -72 -155 -124q-84 -53 -173 -81t-175 -28q-137 0 -212 59q-75 60 -75 170q0 46 24.5 133.5t61.5 167.5l303 672l-76 1 q-89 0 -141 -67q-43 -55 -81 -130q-38 -74 -61 -148t-24 -123z" />
<glyph unicode="&#x42b;" horiz-adv-x="1546" d="M110 238q0 86 35 160l45 102l19 43l178 401l37 80q20 45 45 154q15 73 19 151v29l202 29q0 -4 1 -12t1 -11q0 -68 -22 -166t-58 -190q-15 -40 -22 -58t-11 -26q-6 -19 -15 -43t-11 -31l-238 -512q0 -3 -6 -26q-10 -45 -10 -72q0 -23 11 -44.5t26 -29.5q31 -14 96 -14 q62 0 113 23q98 45 190 143q83 87 141 180t88 186t30 183q0 32 -18 52.5t-46 20.5q-76 0 -132 -83t-63 -203l-209 -91l2 31q12 151 71.5 270t155 184.5t210.5 65.5q97 0 160 -69t63 -174q0 -76 -32 -196t-76 -206q-59 -113 -134.5 -203t-164.5 -154t-186.5 -98t-194.5 -34 q-148 0 -218 63q-72 63 -72 195zM961 -20l448 1003q40 89 58 166q24 118 24 209l205 29l2 -6q0 -22 -10 -76q-39 -214 -66 -283l-41 -104l-18 -47l-381 -856z" />
<glyph unicode="&#x42c;" horiz-adv-x="1082" d="M98 238q0 81 35 160l47 102l18 43l179 401l37 80q20 43 45 154q12 57 16 151l2 29l203 29v-23q0 -70 -21.5 -168t-56.5 -188q-19 -50 -24 -63t-8 -21q-16 -46 -27 -74l-238 -512q0 -2 -6 -26q-13 -56 -13 -72q0 -22 12 -44t28 -30q28 -14 96 -14q62 0 113 23 q92 42 190 143q84 88 141 180q58 92 88 185.5t30 183.5q0 32 -18 52.5t-46 20.5q-77 0 -133.5 -83.5t-61.5 -202.5l-211 -91l4 31q12 151 71.5 269.5t155 184.5t210.5 66q63 0 114 -31.5t80 -87.5t29 -124q0 -79 -32 -198q-32 -118 -76 -204q-57 -110 -133 -201.5 t-165 -154.5q-89 -65 -187 -99t-196 -34q-149 0 -219 63q-72 63 -72 195z" />
<glyph unicode="&#x42d;" horiz-adv-x="1161" d="M64 363q0 80 35 186l161 -141q-2 -17 -2 -35q0 -104 48.5 -165.5t129.5 -61.5q88 0 181 57q93 55 176 157.5t145 239.5q-34 19 -94 19q-12 0 -60 -1q-47 -1 -83 -1q-142 -3 -224 -21l62 191q10 1 18 3l8 3q35 6 146 6l18 2q44 0 113 -8q113 -15 135 -15h17q32 86 32 185 q0 117 -46 185.5t-128 68.5q-37 0 -86 -15t-84 -36q-49 -31 -94 -78t-75 -98t-36 -91l-151 131q50 87 104 150q95 109 199.5 158t243.5 49q76 0 125 -18t96 -64q125 -118 125 -318q0 -103 -22 -208.5t-64.5 -208.5t-102.5 -198q-59 -94 -135 -175q-205 -217 -491 -217 q-99 0 -176 48q-78 49 -121 136.5t-43 198.5z" />
<glyph unicode="&#x42e;" horiz-adv-x="2095" d="M-127 166q0 148 193 250q78 43 148 66t154 33t197 10q60 0 117 -3q102 178 168 355q31 85 46 143q16 58 38 174l191 35q-23 -196 -70 -348q-34 -108 -65.5 -179t-94.5 -180h41h41h51h31q11 55 72 182t131 238t185 208.5t242 156.5t228 59q49 0 77.5 -21t28.5 -59 q0 -74 -110 -98l-39 -8q-119 -26 -234 -107t-206 -200.5t-143 -255t-52 -264.5q0 -90 48.5 -147.5t125.5 -57.5q72 0 147 34t134 93q123 122 206.5 292.5t83.5 299.5q0 79 -61 79q-148 0 -202 -282l-209 -92q6 90 16 137q11 47 37 106q42 94 101.5 161.5t133 103.5t152.5 36 q100 0 161.5 -64.5t61.5 -168.5q0 -75 -32 -195.5t-74 -208.5q-57 -116 -132 -209t-160.5 -157t-181.5 -98.5t-194 -34.5q-161 0 -256 92q-46 47 -64 97t-32 172l-2 12h-13h-65h-31h-110h-39q-93 -111 -145 -162.5t-119 -97.5q-167 -113 -379 -113q-85 0 -147 21.5t-94 63.5 t-32 101zM62 180q0 -46 78 -46q118 0 241 67q78 45 193 160q-98 4 -109 4q-158 0 -282 -60q-55 -23 -88 -58t-33 -67z" />
<glyph unicode="&#x42f;" horiz-adv-x="1080" d="M-82 78l441 447q37 40 37 63q0 15 -12 43q-16 31 -39 111q-31 109 -31 172q0 123 71 232q70 110 188.5 175.5t250.5 65.5q78 0 148.5 -36.5t113.5 -96.5t43 -127v-15q-6 -60 -39 -163.5t-80.5 -218.5t-97.5 -210q-5 -9 -24 -45t-21 -43q-11 -33 -41 -143 q-44 -158 -112 -257.5t-130 -99.5q-32 0 -46 26q-13 25 -13 87q0 31 8 64q8 35 32 102q84 210 123 277q20 28 33 55l195 448q24 55 24 99q0 121 -137 121q-80 0 -151 -45.5t-113.5 -122.5t-42.5 -162q0 -40 9 -70q12 -65 69 -159q26 -45 26 -64q0 -31 -41 -82l-450 -519z " />
<glyph unicode="&#x430;" horiz-adv-x="821" d="M-8 236q0 97 45 180t128 145t194.5 95.5t240.5 33.5q62 0 117 -6v-143q-53 10 -123 10q-112 0 -209.5 -41.5t-154 -113.5t-56.5 -154q0 -100 62 -100q66 0 144.5 84.5t152.5 234.5h170q-113 -245 -113 -270q0 -17 14 -17q29 0 209 148l8 6v-164l-10 -8q-9 -8 -17 -15 t-18 -14q-99 -83 -160 -115q-60 -32 -118 -32q-75 0 -84 101q-43 -55 -87 -78t-110 -23q-69 0 -120 30t-78 88t-27 138z" />
<glyph unicode="&#x431;" horiz-adv-x="733" d="M-8 242q0 162 89.5 290t232.5 171l-66 73q-26 30 -35.5 48.5t-9.5 46.5q0 24 17.5 59t39.5 57l316 308q52 52 78 69t55 17q63 0 63 -70q0 -24 -8 -35l-29 -41l-16 -18l-283 -260q-20 -17 -33.5 -46t-13.5 -55q0 -32 43 -75q11 -9 43 -41q24 -21 38 -34q15 -13 16 -14 q42 -36 57 -51q49 -52 49 -112q0 -61 -49 -113q14 -23 14 -68q0 -33 -12 -65q19 -8 31 -8q45 0 114 53v-164q-50 -37 -133 -37q-39 0 -73 13q-126 -161 -287 -161q-118 0 -183 69.5t-65 193.5zM180 260q0 -55 22.5 -85.5t63.5 -30.5q28 0 65 22t58 51q-30 37 -30 80 q0 44 24 86q25 42 66 70q6 22 6 29q0 24 -20 41.5t-50 17.5q-52 0 -99.5 -40t-76.5 -105t-29 -136z" />
<glyph unicode="&#x432;" horiz-adv-x="791" d="M0 164v164q27 22 42 34.5t25 21.5q11 9 23 20q7 5 45 39q18 16 76 73l277 686l3 9q2 6 5 14q29 84 60 120q32 36 77 36q29 0 48 -20q18 -19 18 -50q0 -52 -18 -125q-22 -88 -43 -129l-206 -401l-168 -435q-12 -29 -12 -53q0 -43 39 -43q44 0 80.5 26.5t95.5 100.5 q-8 43 -8 84q0 91 24.5 171t64.5 128q41 47 87 47q81 0 81 -121q0 -76 -23 -157q-14 -51 -53 -119q29 -8 42 -8q39 0 109 51v-164q-61 -43 -123 -43q-59 0 -119 25q-74 -82 -119 -113q-81 -54 -164 -54q-80 0 -129 48.5t-49 128.5q0 24 9 80z" />
<glyph unicode="&#x433;" horiz-adv-x="781" d="M0 164v164l74 55q36 73 78 135q62 90 147 142.5t168 52.5q58 0 107 -21q49 -20 77 -55.5t28 -77.5q0 -82 -76 -165t-179 -115q-13 -20 -26 -56q-13 -34 -13 -51q0 -32 35 -32q39 0 94 30q176 84 267 158v-164q-35 -27 -121 -76q-100 -58 -142 -71q-42 -15 -129 -32 q-33 -6 -59 -6q-57 0 -94 39t-37 97q0 35 8 63q9 27 47 115q29 62 50 86l12 8l72 31q8 3 53 31q46 32 58 46.5t12 39.5q0 47 -48 47q-51 0 -104.5 -35t-95.5 -94.5t-64 -132.5z" />
<glyph unicode="&#x434;" horiz-adv-x="832" d="M-8 246q0 130 77 232q77 103 215 159.5t312 56.5q47 0 117 -6l14 -145q-98 14 -151 14q-107 0 -198 -40.5t-143 -110.5t-52 -154q0 -45 17.5 -72.5t45.5 -27.5q50 0 111 51q25 22 53 53q56 67 139 209h164l-125 -309l21 16l176 121l47 35v-164q-113 -79 -207 -156 q-49 -41 -72 -61q-51 -44 -114 -113l-86 -203q-46 -107 -84 -148.5t-91 -41.5q-36 0 -60 26q-23 25 -23 66q0 91 59 194q53 93 170 234l26 72q-78 -54 -155 -54q-90 0 -146.5 74.5t-56.5 192.5z" />
<glyph unicode="&#x435;" horiz-adv-x="676" d="M-9 242q0 112 66.5 215t177 165t230.5 62q52 0 92 -17.5t62 -50.5q22 -32 22 -73q0 -92 -61 -160q-46 -49 -105 -84q-60 -32 -116 -50t-167 -40q24 -74 95 -74q86 0 186 54q77 39 203 139v-164q-112 -83 -186 -119q-131 -65 -258 -65q-70 0 -124.5 32.5t-85.5 92.5 t-31 137zM200 342q117 25 188 69t71 93q0 18 -12 28q-13 11 -33 11q-63 0 -119 -53q-56 -52 -95 -148z" />
<glyph unicode="&#x436;" horiz-adv-x="1460" d="M-1 164v164l271 229l78 66q100 88 187 88q44 0 73.5 -16.5t57.5 -55.5q42 -66 42 -108q0 -13 -2 -23l308 733q32 79 59 109.5t68 30.5q78 0 78 -99q0 -54 -27 -129q-46 -119 -145 -307q-75 -142 -84 -162v1q-1 0 -8 -19l-79 -172q77 81 178.5 135.5t174.5 54.5 q77 0 127 -71q41 -55 41 -111q0 -70 -62.5 -141.5t-173.5 -130.5l-72 -39l-18 -11q-4 -24 -6 -34q-2 -6 -2 -17q0 -24 31 -24q37 0 108 39q143 83 166 104l72 64l20 16v-164l-16 -12q-84 -68 -130 -95t-112 -47q-105 -31 -190 -31q-55 0 -87 32.5t-32 87.5q0 67 34 141 q26 55 27 55q2 2 2 6q45 13 85 29q85 36 150 90.5t65 89.5q0 15 -12.5 26t-28.5 11q-35 0 -115 -47.5t-149 -110.5q-78 -70 -153.5 -174t-131.5 -221l-64 -185l-37 -118q-24 -76 -61 -140q-38 -63 -72 -90q-27 -20 -69 -20q-81 0 -81 114q0 58 44.5 145.5t115.5 168.5 l139 338l-16 -14l-53 -70q-28 -32 -73 -67q-44 -34 -70 -48q-18 -11 -64 -21q-27 -8 -51 -8q-50 0 -90 30.5t-40 68.5q0 33 35 63t95 49q59 20 132 25q66 76 110 156t44 123q0 49 -40 49q-26 0 -41 -12l-57 -49l-39 -27z" />
<glyph unicode="&#x437;" horiz-adv-x="830" d="M-76 -430q0 82 72 164q39 42 72 67q79 63 252 156q0 8 2 10q2 23 2 54q0 24 -2 39v6q-23 -5 -29 -6q-45 -11 -78 -11q-32 0 -56 18t-24 42q0 38 29 67q27 28 64 46q38 18 69 18q33 0 70 -6q158 128 158 231q0 30 -21 51q-20 21 -47 21q-48 0 -184 -125q-30 -27 -39 -35 l-174 -160q-5 -4 -21 -18q-16 -12 -39 -35v164l15 12l49 47l10 9l164 155q136 127 256 127q91 0 149 -51.5t58 -134.5q0 -103 -80 -201q-53 -66 -158 -135q19 -65 23 -92l43 33l43 32l94 72l94 74l70 53v-164l-334 -271q-75 -193 -139 -293q-56 -84 -131.5 -131t-153.5 -47 q-65 0 -107 42q-41 41 -41 106zM51 -424q0 -29 27 -29q53 0 109 60q30 35 47 67.5t45 110.5q-97 -51 -162.5 -111t-65.5 -98z" />
<glyph unicode="&#x438;" horiz-adv-x="951" d="M0 164v164q82 65 109 92l43 43l69 82l54 117l180 6l-195 -449q168 135 258 217q73 64 93 82q94 91 148 148l163 6q-108 -260 -198 -440q-8 -17 -8 -27q0 -14 13 -14q17 0 37 14l128 84l49 33l8 6v-164l-18 -14l-21 -15q-149 -106 -228 -135q-44 -14 -98 -21q-86 3 -86 81 q0 61 50 174q5 15 9 23.5t9 23.5l-306 -236q-84 -66 -159 -66q-38 0 -62 19q-24 20 -24 49q0 44 36 123q4 10 9 21l10 22z" />
<glyph unicode="&#x439;" horiz-adv-x="951" d="M0 164v164q82 65 109 92l43 43l69 82l54 117l180 6l-195 -449q168 135 258 217q73 64 93 82q94 91 148 148l163 6q-108 -260 -198 -440q-8 -17 -8 -27q0 -14 13 -14q17 0 37 14l128 84l49 33l8 6v-164l-18 -14l-21 -15q-149 -106 -228 -135q-44 -14 -98 -21q-86 3 -86 81 q0 61 50 174q5 15 9 23.5t9 23.5l-306 -236q-84 -66 -159 -66q-38 0 -62 19q-24 20 -24 49q0 44 36 123q4 10 9 21l10 22zM467 867q0 57 45 94t115 37q67 0 137 -17l185 123l-9 -176q-5 -3 -34.5 -23.5t-38.5 -25.5q-25 -16 -115 -70q-54 -30 -89 -41.5t-71 -11.5 q-57 0 -91 30t-34 81z" />
<glyph unicode="&#x43a;" horiz-adv-x="951" d="M0 164v164q61 53 105 94q73 70 100 98l289 703q36 90 65 124t70 34q35 0 57 -23q23 -23 23 -57q0 -47 -24.5 -131.5t-55.5 -145.5l-180 -350l-64 -154q81 78 133 111q87 53 179 53q58 0 103 -19t70 -55q26 -35 26 -81q0 -102 -107 -199q-42 -38 -86.5 -62.5t-120.5 -52.5 q-1 -1 -2 -3t-2 -3q-16 -29 -16 -45q0 -20 22 -20q51 0 131 39q87 42 236 145v-164q-128 -87 -193 -117q-142 -68 -240 -68q-64 0 -103.5 38t-39.5 100q0 80 72 211q15 5 33 10.5t23 7.5q80 27 129 66q63 50 63 92q0 13 -8.5 22t-20.5 9q-48 0 -117.5 -50t-144.5 -137 t-138 -190q-57 -95 -101 -136q-45 -43 -87 -43q-59 0 -59 48t37 135l11 33q2 6 9 26z" />
<glyph unicode="&#x43b;" horiz-adv-x="934" d="M-1 162v166l83 61l20 15q9 5 15 10q32 18 74 18q73 0 73 -67q0 -19 -8 -43l344 274l60 45l47 35q17 14 43 14q49 0 82 -34t33 -84q0 -32 -25 -84l-142 -281q-10 -17 -10 -27t17 -10q4 0 22 6q102 50 207 152v-164q-37 -34 -64 -53q-27 -18 -94 -55q-130 -77 -206 -77 q-42 0 -67.5 25t-25.5 66q0 33 12 55l131 240l13 31q8 16 8 18q0 14 -18 14t-121 -96l-305 -283q-29 -26 -47 -41q-16 -16 -41 -23q-15 -6 -33 -6q-25 0 -40.5 17t-15.5 43q0 31 12 64l35 106z" />
<glyph unicode="&#x43c;" horiz-adv-x="1305" d="M0 164v164l66 49l12 10q36 29 90 29q36 0 58 -19t22 -51q0 -14 -6 -37l4 5l383 327l14 13q34 36 97 36q37 0 63 -17q27 -18 27 -44q0 -43 -35 -129l-36 -88l-37 -80l290 287q72 71 149 71q38 0 61 -17q24 -17 24 -44q0 -21 -14 -53l-148 -307q-6 -12 -8 -17t-6 -14 q-12 -18 -12 -31q0 -16 15 -16q26 0 103 51l70 47l49 31l10 8v-164l-12 -10q-8 -6 -36 -24q-27 -19 -58 -40q-164 -111 -253 -111q-44 0 -72 30q-27 29 -27 73q0 35 24 90l51 107v4l56 113l4 16l-357 -350l-51 -41l-27 -15l-25 -14q-19 -13 -43 -13q-21 0 -36 17 q-15 18 -15 43q0 53 31 111l133 274l-409 -389l-29 -27q-30 -29 -74 -29q-59 0 -59 70q0 29 16 74q22 51 27 84z" />
<glyph unicode="&#x43d;" horiz-adv-x="924" d="M-33 15q0 64 74 153q41 52 56 76q-62 -62 -97 -80v163q81 60 148 127q13 13 25 27t26 31q34 43 60 94l24 56l181 6l-134 -293q54 35 102 45q65 10 140 10h37l79 211q14 40 33.5 55t56.5 15q39 0 63 -18t24 -48q0 -21 -20 -71l-140 -324l-10 -24q-8 -16 -8 -27 q0 -17 20 -17q38 0 90 43l54 44q30 22 43 32t13.5 10.5t6 6.5t10.5 10v-168l-14 -10q-129 -93 -209 -132q-79 -39 -140 -39q-93 0 -93 89q0 42 20 86l21 45l32 72q-15 0 -30 1t-21 1q-129 0 -244 -86l-82 -185q-38 -82 -111 -82q-39 0 -63 25q-23 25 -23 70z" />
<glyph unicode="&#x43e;" horiz-adv-x="735" d="M-8 238q0 125 57 234q57 110 153 174q96 65 206 65q94 0 161 -56q66 -55 66 -133q0 -45 -47 -108q12 -34 12 -57q0 -32 -12 -78l29 -6h6q39 0 112 55v-164q-60 -39 -124 -39q-30 0 -84 12q-39 -49 -64 -71.5t-67 -44.5q-80 -42 -164 -42q-114 0 -177 69t-63 190zM180 260 q0 -55 22 -86.5t60 -31.5q43 0 96 43q7 5 35 26q-31 49 -31 88q0 87 92 152l5 26v5q0 22 -22 39q-22 18 -50 18q-52 0 -100 -40t-77.5 -104.5t-29.5 -134.5z" />
<glyph unicode="&#x43f;" horiz-adv-x="946" d="M-1 164v164q100 83 146 129l45 49l43 51l53 107l175 8l-129 -281l313 232q92 67 158 67q36 0 61 -18.5t25 -44.5q0 -20 -27 -80l-4 -8l-133 -299q0 -2 -2 -4q-1 -2 -2.5 -6.5t-3.5 -8.5q-6 -17 -6 -20q0 -12 14 -12q55 0 162 92q34 29 59 47v-164q-35 -26 -57 -43 q-108 -80 -174 -110q-67 -32 -131 -32q-41 0 -67 24.5t-26 62.5q0 45 21 92l116 262l-441 -373q-8 -4 -21 -18q-54 -50 -90 -50q-26 0 -42 18t-16 46q0 45 37 133q4 12 9 26q6 15 9 24z" />
<glyph unicode="&#x440;" horiz-adv-x="1028" d="M-48 -467q0 53 47 215q32 108 59 191q28 83 62.5 173t99.5 249q-70 -68 -79 -76q-3 -3 -21 -19l-27 -24q-26 -22 -37 -31q-10 -9 -57 -47v164q46 36 70 56q25 20 48 39q24 19 45 36q14 11 28 24.5t29 26.5q35 29 94 88l23 78l143 8l-57 -176q60 79 109 117q88 70 186 70 q75 0 128 -54q52 -53 52 -129q0 -95 -62 -203q-36 -65 -106 -145q57 15 110 39q27 13 58 31q64 40 131 94v-164q-99 -74 -163 -106q-108 -56 -187 -56q-39 0 -100 17q-65 -32 -119 -32q-50 0 -85.5 33.5t-35.5 80.5q0 26 18 36q18 11 64 11q25 0 62 -2l14 -2q89 81 141 157 q73 111 73 185q0 18 -10 31.5t-26 13.5q-37 0 -108 -58q-71 -57 -138 -143q-192 -249 -264 -687q-19 -108 -41 -143q-31 -59 -92 -59q-34 0 -57 26q-22 26 -22 66z" />
<glyph unicode="&#x441;" horiz-adv-x="680" d="M-8 244q0 122 63.5 224t172.5 160q110 58 243 58q191 0 191 -104q0 -21 -6 -43q-1 -6 -9 -29q-4 -8 -16 -35q-13 -29 -31 -64l-4 -8h-170l2 4q2 3 5 8.5t6 10.5q38 75 38 96q0 37 -47 37q-74 0 -137 -65q-48 -49 -75 -111t-27 -123q0 -123 100 -123q91 0 188 54 q76 42 201 137v-164q-132 -92 -217 -133q-103 -51 -205 -51q-120 0 -193 72t-73 192z" />
<glyph unicode="&#x442;" horiz-adv-x="1299" d="M0 164v164l49 43l54 47l51 49l84 90l51 107l166 6l-111 -266l246 209q36 31 68 53t82 22q39 0 62 -17q24 -17 24 -46q0 -44 -59 -172q-16 -34 -23 -49l266 219q50 42 77.5 55.5t61.5 13.5q41 0 66 -17.5t25 -47.5q0 -23 -21 -70l-149 -317q-2 -2 -2 -4q-13 -23 -13 -35 t10 -12q14 0 31 10q99 56 203 129v-164q-119 -89 -199 -135q-95 -50 -166 -50q-39 0 -67 29q-27 28 -27 68q0 30 21 80l6 14l113 256l-390 -368l-7 -7q-8 -8 -11 -12q-60 -60 -90 -60q-27 0 -43.5 15.5t-16.5 40.5q0 12 4 41q1 2 4 14q4 12 6 17q6 9 19 43l121 276 l-377 -362l-11 -11q-5 -6 -10 -10q-63 -64 -100 -64q-26 0 -43 18q-16 18 -16 46q0 56 45 148q5 12 10 22l4 8q-13 -11 -61 -47z" />
<glyph unicode="&#x443;" horiz-adv-x="910" d="M0 164v164q102 85 135 119q53 49 99 100l43 115l176 6l-187 -434l464 428l155 6l-221 -514q25 24 56 49q54 42 153 102l19 11l18 12v-164q-157 -107 -209 -149q-49 -42 -69 -62q-46 -39 -111 -115q-4 -11 -19 -49q-62 -185 -120 -267q-57 -81 -124 -81q-38 0 -63 25 q-25 26 -25 65q0 86 56 185.5t162 227.5l151 347l-230 -201q-129 -111 -210 -111q-34 0 -55 18q-21 19 -21 48q0 48 37 129q6 18 8 23.5t6 13.5l-10 -6l-8 -4q-15 -9 -21 -14l-20 -13z" />
<glyph unicode="&#x444;" horiz-adv-x="1131" d="M-13 234q0 123 57 233q58 110 153 176t203 66q90 0 143 -45l172 497q45 130 75.5 175t74.5 45q61 0 61 -93q0 -42 -8 -77q-30 -138 -64 -215l-53 -131l-16 -39l-78 -172q31 34 57 45q26 12 68 12q83 0 142 -58q59 -57 59 -139q0 -50 -47 -106q10 -25 10 -68 q0 -39 -10 -67q29 -7 36 -7q24 0 56 19q33 18 53 43v-170q-58 -39 -125 -39q-44 0 -84 16q-23 -40 -71 -76t-107.5 -57.5t-112.5 -21.5q-37 0 -70 8t-44 14q-10 6 -27 27l-80 -238l-23 -67q-42 -135 -92 -214q-45 -69 -112 -69q-86 0 -86 96q0 73 47 170q21 44 45 77 q24 34 82 106l18 24l35 107q-47 -41 -115 -41q-97 0 -159.5 71.5t-62.5 182.5zM176 250q0 -47 25.5 -80t60.5 -33q91 0 138 109l45 129q14 47 14 74q0 37 -23 61q-23 25 -57 25q-42 0 -81 -27q-38 -28 -66 -76q-56 -90 -56 -182zM576 236q0 -40 25 -70q26 -31 61 -31 q29 0 64.5 20.5t60.5 51.5q-27 49 -27 88q0 98 90 152q10 12 10 35q0 24 -20 41.5t-49 17.5q-53 0 -97 -33q-44 -32 -67 -88l-45 -133q-6 -31 -6 -51z" />
<glyph unicode="&#x445;" horiz-adv-x="875" d="M-1 164v164q59 55 93 90q94 96 164 153.5t123 83t98 25.5q38 0 61 -31.5t23 -83.5v-53l156 156h184l-340 -340v-139q0 -49 27 -49q39 0 99.5 38t160.5 127q5 3 14 13l13 10v-164q-100 -87 -162 -123q-101 -62 -178 -62q-69 0 -100.5 52t-32.5 168l-195 -197h-185l379 381 v90q-3 23 -18 23q-23 0 -137 -115q-47 -46 -99 -92q-84 -73 -148 -125z" />
<glyph unicode="&#x446;" horiz-adv-x="1198" d="M-1 164v164l47 39l62 53q47 41 76 68q26 31 37 57l53 117l180 6l-193 -440l101 75l156 133l96 80q11 10 72 76q17 20 72 74l164 6q-90 -170 -154 -310.5t-64 -172.5q0 -15 15 -15q11 0 41 19l133 96l53 39l58 -53l-43 -109q38 36 114 86q74 50 105 68l18 8v-164l-12 -10 l-92 -64q-8 -5 -96 -73q-87 -69 -95 -77q-61 -52 -100 -100q-47 -193 -116 -296t-150 -103q-37 0 -59 28q-24 29 -24 74q0 102 76 221q40 67 129 170l19 21l32 74q-54 -50 -122 -50q-40 0 -64.5 22.5t-24.5 58.5q0 61 50 174q5 15 9 23.5t9 23.5l-305 -236q-84 -66 -159 -66 q-38 0 -63 19q-24 20 -24 49q0 41 36 123q13 28 19 43l-14 -10l-48 -31l-6 -6z" />
<glyph unicode="&#x447;" horiz-adv-x="705" d="M0 164v164q73 70 123 133q57 68 107 148q-27 42 -27 77q0 49 30 83t74 34t72 -27q29 -27 29 -69q0 -21 -2 -33h94q125 0 125 -94q0 -43 -30 -107l-125 -256q-8 -20 -8 -28q0 -11 9 -11q42 0 199 123l35 27v-164q-125 -99 -187 -133q-86 -52 -176 -52q-45 0 -74 28 q-28 26 -28 69q0 52 39 133l140 283l12 30q-9 11 -25 15h-51q-63 -98 -136 -176q-56 -61 -99.5 -101t-119.5 -96z" />
<glyph unicode="&#x448;" horiz-adv-x="1317" d="M-1 164v164q12 6 15 6q43 28 145 137q36 38 57.5 79t43.5 112l172 6l-169 -397q-33 -84 -36 -91q0 -2 -3 -9q-2 -7 -4 -15q-2 -4 -2 -12q0 -6 9 -11q10 -6 13 -6q14 0 47 23q59 48 106 100q75 80 134 168q6 13 17.5 33t39.5 69q32 59 50 78t44 19q30 0 49 -18 q18 -17 18 -44v-10q-2 -13 -6 -20q0 -8 -68 -158q-26 -63 -55 -174q-4 -20 -4 -31q0 -8 9 -20q2 0 6 -5q13 -6 16 -6q10 0 33 17l57 43q20 15 58 51q44 53 47 63l10 27q0 2 4 10q5 8 39 113q33 99 82 154t104 55q30 0 49 -19t19 -49q0 -49 -34 -129t-89 -162 q-22 -28 -26 -51l-5 -33q-2 -10 -2 -20q0 -25 41 -25q50 0 152 62q1 1 18 12q18 11 54 35q19 13 34.5 24t18.5 13l10 6v-166q-61 -47 -110 -80q-77 -46 -149 -75.5t-107 -29.5q-42 0 -68.5 26.5t-26.5 68.5q0 5 1 16t1 19l-12 -15q-19 -18 -70 -53q-26 -17 -49 -29 q-63 -35 -139 -35q-56 0 -88 34t-43 106q-25 -29 -64 -59t-69 -43q-7 -4 -72 -26q-43 -12 -74 -12q-52 0 -90 42t-38 100q0 37 23 98z" />
<glyph unicode="&#x449;" horiz-adv-x="1217" d="M0 164v164q6 5 14 10q8 6 11 8q80 61 108.5 88.5t73.5 90.5q34 43 45 69q12 26 21 68l168 6l-19 -41l-149 -363l-27 -57l-6 -24l-8 -29v-10q0 -15 14 -15q27 0 61 27q35 25 89 82q134 146 196 278q25 59 47 76q28 25 64 25q53 0 53 -58q0 -18 -4 -26l-30 -92l-23 -68 q-19 -55 -43 -115q-14 -31 -24 -71l-7 -31q-2 -4 -2 -8v-2q0 -1 10 -9q9 -6 16 -6q28 0 105 66q55 45 90 106l8 29l8 31q34 124 98 213q65 88 122 88q35 0 55 -20q21 -19 21 -54q0 -47 -28.5 -120t-67.5 -130l-29 -41q-32 -47 -66 -143q17 13 27 20q39 35 41 35q9 9 37 27 q74 53 147 90v-164l-33 -22l-86 -56q-69 -43 -213 -180q-45 -43 -69 -78l-11 -27q-53 -148 -74.5 -193t-64.5 -102q-47 -65 -119 -65q-34 0 -57 30q-23 31 -23 80q0 63 37 133q35 65 87.5 136t99.5 114l104 101l25 25l-35 -17l-33 -24q-16 -14 -60.5 -29t-76.5 -15 q-71 0 -105 38q-26 26 -43 108q-13 -14 -14 -16q-3 -3 -19 -15q-15 -13 -30 -24q-30 -21 -51 -37q-78 -50 -152 -50q-66 0 -107 42t-41 110q0 37 25 84z" />
<glyph unicode="&#x44a;" horiz-adv-x="862" d="M-1 164v164q34 37 41 49q2 2 45 80q49 87 51 145q-30 33 -30 90q0 44 39 80q32 31 74 31q40 0 70 -30q28 -30 28 -70q0 -2 -4 -31h221q43 0 43 -23q0 -14 -12 -40l-178 -379q-19 -41 -19 -64q0 -47 44 -47q36 0 65.5 17.5t69.5 62.5q-72 37 -72 110q0 45 24 84 q25 39 65 63q41 23 85 23q55 0 86 -30.5t31 -83.5q0 -28 -18 -80q18 -12 26 -12q43 0 88 55v-164q-73 -39 -122 -39q-34 0 -70 21q-31 -47 -80 -86q-107 -81 -203 -81q-82 0 -130.5 48.5t-48.5 130.5q0 79 56 197l55 112q13 26 13 41q0 29 -47 29h-25q-25 -105 -76 -189 q-35 -56 -74 -95q-39 -38 -111 -89z" />
<glyph unicode="&#x44b;" horiz-adv-x="1131" d="M0 164v164q3 3 6 5t4 3q76 63 80 68q7 6 20.5 20t31.5 31q71 79 104 125l37 82l207 6l-164 -342q-18 -38 -29 -62q-24 -63 -24 -98q0 -43 39 -43q40 0 69 27l37 28l23 19l6 10q-31 8 -52 40q-22 33 -22 71q0 66 53 117t121 51q51 0 84 -29q33 -28 33 -72q0 -16 -12 -63 q-1 0 -4 -21q40 2 61 19.5t54 72.5q20 34 88 127q58 78 86 142l172 6l-6 -16l-136 -263l-14 -34l-31 -66q-22 -53 -22 -70q0 -16 18 -16q8 0 10 2l23 14l180 109v-164q-21 -18 -30 -22q-10 -8 -78 -48q-111 -60 -134 -71q-87 -44 -127 -44q-32 0 -57 27q-24 26 -24 60t16 88 l8 24q-55 -38 -119 -38q-2 0 -27 4q-29 -53 -129 -115q-78 -50 -151 -50q-78 0 -122 46.5t-44 128.5q0 60 37 129q-24 -24 -86 -76q-27 -22 -64 -43z" />
<glyph unicode="&#x44c;" horiz-adv-x="805" d="M0 158v170q63 36 107 82q109 113 141 166l34 86l203 6l-210 -445q-3 -5 -11 -51v-6q0 -45 45 -45q38 0 72.5 21.5t54.5 56.5q-68 44 -68 110q0 70 50 119t119 49q57 0 88 -28t31 -80q0 -35 -17 -84q45 -12 60 -12q12 0 49 14q40 17 57 39v-162q-84 -49 -141 -49 q-64 0 -107 22q-15 -22 -55 -59q-116 -103 -223 -103q-76 0 -125 47.5t-49 121.5q0 27 16 108l-27 -24l-43 -35q-12 -10 -23 -18.5t-13 -10.5q-3 0 -15 -6z" />
<glyph unicode="&#x44d;" horiz-adv-x="727" d="M-13 193v45q2 43 13 97l143 -32q-2 -22 -2 -45q0 -55 35.5 -89t92.5 -34q45 0 86 32q33 24 49 49t32 76q-26 -5 -53 -5h-63h-79l52 140h57l56 -1h35q9 0 36 8q5 31 5 50q0 84 -105 84q-66 0 -101.5 -18.5t-70.5 -70.5l-138 46q56 96 130.5 141t179.5 45q71 0 129 -14 q38 -13 70 -39q38 -34 53 -75q14 -40 14 -116q0 -60 -8.5 -101t-36.5 -106l129 68v-163l-362 -167q-33 -16 -139 -19h-13q-101 0 -163.5 59t-62.5 155z" />
<glyph unicode="&#x44e;" horiz-adv-x="1168" d="M-33 13q0 46 20 83q21 37 81 101l10 26l-78 -59v164q22 14 23 16q18 13 59 54l66 63q35 34 82 88l51 113l172 6l-125 -291l14 8q55 25 103 39l18 4q26 79 84.5 145t135.5 103t155 37q62 0 115 -25.5t83.5 -68.5t30.5 -94q0 -58 -47 -111q12 -27 12 -70q0 -35 -14 -61 q18 -10 33 -10q34 0 70 22l35 25l12 8v-164q-58 -37 -125 -37q-32 0 -82 15l-13 -17q-37 -46 -73 -76q-83 -70 -213 -70q-74 0 -128 30.5t-83 86.5t-29 132q0 16 2 28q-8 2 -18 2q-63 0 -113.5 -39t-81.5 -110l-49 -111q-40 -86 -115 -86q-80 0 -80 101zM611 258 q0 -52 23.5 -85t60.5 -33q57 0 128 71q-31 44 -31 90q0 94 91 150q4 20 4 33q0 24 -20 38.5t-54 14.5q-50 0 -97 -40t-76 -104.5t-29 -134.5z" />
<glyph unicode="&#x44f;" horiz-adv-x="983" d="M-1 164v164q88 73 128 94q23 14 53 14q35 0 58.5 -20t23.5 -49q0 -13 -10 -47q-5 -16 -15 -74l127 125q-6 9 -12.5 16.5t-7.5 12.5q-23 42 -31 108q-2 10 -2 31q0 68 48 129q47 62 126 98.5t167 36.5q72 0 131 -24.5t92 -68t33 -99.5q0 -29 -31 -110q-30 -81 -74 -169 q-49 -99 -49 -119t20 -20q18 0 47 20q1 1 24 17t56 39q46 29 82 59v-164l-14 -12q-62 -47 -117 -86q-121 -87 -233 -87q-38 0 -62.5 23t-24.5 58q0 6 8 51q13 46 19 64.5t35 78.5l123 256l4 19l6 43q0 36 -28 60t-72 24q-57 0 -103.5 -44t-46.5 -98q0 -21 6 -45 q7 -40 49 -102q1 -2 10 -17l-329 -311q-52 -49 -70 -62q-19 -12 -42 -12q-25 0 -44 20t-19 46q0 59 33 131l25 57l10 27q-46 -41 -107 -82z" />
<glyph unicode="&#x451;" horiz-adv-x="676" d="M-8 242q0 112 66.5 215t176.5 165t230 62q52 0 92 -17.5t62 -50.5q23 -32 23 -73q0 -92 -62 -160q-46 -49 -105 -84q-59 -32 -115 -50t-167 -40q23 -74 94 -74q86 0 186 54q77 39 204 139v-164q-113 -83 -187 -119q-131 -65 -258 -65q-70 0 -124.5 32.5t-85 92.5 t-30.5 137zM201 342q117 25 188 69t71 93q0 18 -13 28q-13 11 -33 11q-63 0 -119 -53q-55 -52 -94 -148zM226 852v2q1 53 36.5 89t85.5 36q42 0 67.5 -27t25.5 -71q0 -52 -35 -88.5t-82 -36.5q-42 0 -70 27t-28 69zM529 852v2q2 53 37 89t86 36q41 0 66.5 -27t25.5 -71 q0 -52 -35 -88.5t-82 -36.5q-42 0 -70 27q-28 28 -28 69z" />
<glyph unicode="&#x456;" horiz-adv-x="1059" d="M264 164v92h779v-92h-779zM264 801v90l781 -258v-82l-779 -225v88l648 182z" />
<glyph unicode="&#x457;" d="M216 1366h169l170 -284l166 284h170l-231 -409h-205z" />
<glyph unicode="&#x45e;" horiz-adv-x="680" d="M-8 240q0 177 125 311q59 64 121 94q61 31 180 56l6 17l66 151h155l-84 -193q101 -18 101 -94q0 -21 -6 -43q-1 -6 -9 -29q-4 -8 -16.5 -35.5t-30.5 -62.5l-4 -8h-170l2 4q2 3 5 8.5t6 10.5q38 74 38 95q0 38 -47 38q-74 0 -137 -66q-48 -49 -75 -111t-27 -123 q0 -123 100 -123q91 0 188 54q76 42 201 137v-164q-150 -102 -213 -133q-61 -33 -143 -38l-78 -190h-158l81 189l-27 8q-47 27 -78 53q-72 65 -72 187z" />
<glyph unicode="&#x490;" d="M38 301l46 110h142l39 95h-153l46 110h158l4 10q4 12 18 39q104 217 104 267q0 35 -38 35q-51 0 -93.5 -59.5t-88.5 -194.5l-149 -23q43 132 71 190t79 120q88 106 218 106q76 0 122.5 -39.5t46.5 -103.5q0 -71 -59 -201l-4 -12l-7 -12l-270 -596q184 176 256 260 l119 135l119 143l80 152q8 16 14 26l9 15l3 4q3 4 7 8q18 14 37 14h65q37 0 37 -28q0 -18 -8 -37l-94 -218h120l-47 -110h-122l-41 -95h137l-47 -110h-140l-100 -229q-51 -117 -100 -196q-48 -80 -93.5 -122.5t-82.5 -42.5q-27 0 -46.5 13.5t-19.5 33.5q0 25 32 76l2 4 l185 357l51 106q-39 -41 -70 -75q-116 -132 -191 -184q-74 -52 -146 -52q-35 0 -61 28.5t-26 67.5q0 62 53 183l8 16l6 16h-137z" />
<glyph unicode="&#x491;" horiz-adv-x="951" d="M427 770l65 250h190l-133 -250h-122z" />
<glyph unicode="&#x2000;" horiz-adv-x="832" />
<glyph unicode="&#x2001;" horiz-adv-x="1665" />
<glyph unicode="&#x2002;" horiz-adv-x="832" />
<glyph unicode="&#x2003;" horiz-adv-x="1665" />
<glyph unicode="&#x2004;" horiz-adv-x="555" />
<glyph unicode="&#x2005;" horiz-adv-x="416" />
<glyph unicode="&#x2006;" horiz-adv-x="277" />
<glyph unicode="&#x2007;" horiz-adv-x="277" />
<glyph unicode="&#x2008;" horiz-adv-x="208" />
<glyph unicode="&#x2009;" horiz-adv-x="333" />
<glyph unicode="&#x200a;" horiz-adv-x="92" />
<glyph unicode="&#x2010;" horiz-adv-x="518" d="M-1 256l85 172h434l-67 -172h-452z" />
<glyph unicode="&#x2011;" horiz-adv-x="518" d="M-1 256l85 172h434l-67 -172h-452z" />
<glyph unicode="&#x2012;" horiz-adv-x="518" d="M-1 256l85 172h434l-67 -172h-452z" />
<glyph unicode="&#x2013;" horiz-adv-x="1023" d="M-1 256l168 172h856l-132 -172h-892z" />
<glyph unicode="&#x2014;" horiz-adv-x="2047" d="M-1 256l335 172h1713l-264 -172h-1784z" />
<glyph unicode="&#x2018;" horiz-adv-x="467" d="M214 899l327 467h96l-174 -467h-249z" />
<glyph unicode="&#x2019;" horiz-adv-x="467" d="M265 899l176 467h247l-323 -467h-100z" />
<glyph unicode="&#x201c;" horiz-adv-x="856" d="M-56 -233l175 467h248l-324 -467h-99zM326 -233l174 467h250l-326 -467h-98z" />
<glyph unicode="&#x201d;" horiz-adv-x="856" d="M212 899l327 467h96l-174 -467h-249zM594 899l326 467h98l-174 -467h-250z" />
<glyph unicode="&#x2022;" horiz-adv-x="537" d="M71 957q0 71 35.5 131.5t96 95.5t131.5 35q70 0 130 -35.5t96 -95t36 -125.5q0 -72 -35 -132.5t-96 -94.5q-60 -35 -131 -35q-108 0 -185.5 76t-77.5 180z" />
<glyph unicode="&#x202f;" horiz-adv-x="333" />
<glyph unicode="&#x205f;" horiz-adv-x="416" />
<glyph unicode="&#x25fc;" horiz-adv-x="680" d="M0 0v680h680v-680h-680z" />
</font>
</defs>
</svg>
